<?xml version="1.0" encoding="utf-8"?>
<!-- Generator: Adobe Illustrator 25.3.0, SVG Export Plug-In . SVG Version: 6.00 Build 0)  -->
<svg version="1.1" id="Layer_1" xmlns="http://www.w3.org/2000/svg" xmlns:xlink="http://www.w3.org/1999/xlink" x="0px" y="0px"
	 viewBox="0 0 236.2 195.6" style="enable-background:new 0 0 236.2 195.6;" xml:space="preserve">
<style type="text/css">
	.st0{fill:#63352F;}
	.st1{fill:#824941;}
	.st2{fill:none;stroke:#2E2C3E;stroke-width:3.3781;stroke-miterlimit:10;}
	.st3{fill:none;stroke:#2E2C3E;stroke-width:1.6891;stroke-miterlimit:10;}
	.st4{fill:#FFA48E;}
	.st5{fill:#2E2C3E;}
	.st6{fill:#434057;}
	.st7{fill:#19556C;}
	.st8{fill:#1E617B;}
	.st9{fill:#9D9AAE;}
	.st10{fill:#00ABC4;}
	.st11{fill:none;}
	.st12{fill:#FFD9D7;}
	.st13{fill:#E47761;}
</style>
<g>
	<path class="st0" d="M101.5,170l-10.5,14c0,0-2.5,3-4.5,3.3c-2,0.3-4.1-0.1-5.5-0.9s-1.3-4.1,0.9-4c0,0,3.1,0.6,4.1-1.1
		c1-1.7,7.3-14.8,7.3-14.8L101.5,170z"/>
	<path class="st0" d="M57.4,184.5c0.4,0.2,17.8,5.7,18.5,1.7c0.3-1.6-1.4-2.9-4.1-3.1c-2.4,0.1-8.5-1.8-9.7-4.3
		c1.1-2.5,1-6.2-2.7-13.8c-2.9-5.9-4.9-7.3-7.5-9.6c-4.2,3-15.4,11.6-12.4,18.3c4.5,2.8,16.2,2,17.2,8.3
		C56.4,183.7,55.9,184,57.4,184.5z"/>
	<path class="st1" d="M120.9,131.2c-0.5-1.4-1.7-5.1-5.9-5.4c-4.2-0.3-6.7-0.7-8.9,2.3c-2.2,3-16.7,16.2-40.6,13.4
		c-23.9-2.8-31.9,4.5-34,7.3c-6.3,2.3-14.6,2.7-16.6-2.6c-1.9-4,2.4-5.6,5.6-3.7c0,0,2.8-7-7-5.9c0.9-0.8,1.7-2.9,0-4
		c-0.3,1-2.5,2.9-3.6,3.3c-1.1,0.3-7.6,2.6-7.4,7.7c-0.9-0.3-1.2-0.8-1.2-1.5c0,0-4,11.1,8.5,15.7c12.5,4.6,14.7,0.9,14.7,0.9
		s0.7,17.5-8.7,19.8c-1.5,0.5-2,0.1-1.8,1.7c0.2,1.6,1.7,7.2,1.9,8.9c0.2,1.7,0,4,1.8,4.9c1.8,1,3.3,1.4,5.3,0
		c2-1.4-0.2-3.2-1.9-3.8c-1.8-1.3-2.4-7.8-0.7-10c2.7-0.1,8.4,1.5,14.6-0.7c6.2-2.2,8.6-8.7,9.5-12.1c0.9-3.4,2.4-4.1,3.8-3.8
		c1.5,0.3,28.2,9.4,44.8,3.8c4.6,4,10,5,11.7,6.5c1.7,1.5,12.3,13.5,14.3,15.1c2,1.6,3.7,3.2,5.5,3.3c1.8,0.1,4.6-1.6,2.5-3.2
		c-2.2-1.6-10.6-8.9-11.8-12c-2.8-4-7.9-15.1-8.5-17.1c2.1-1.7,6.3-13.3,6.3-14.6c2.9-1.4,4.8-2.5,4.8-2.5s9,4.7,11-5.5
		c0.4-2.5-0.5-3.4-2.8-3.4C124,134.3,121.8,133.5,120.9,131.2z"/>
	<path class="st2" d="M96.7,135.5c3,9.5,8.5,14.4,14.9,15.2"/>
	<path class="st3" d="M110.5,150.7c30.7,11.6,22.4-15.2,35.6-29.4c7.8-8.4,14.2,4.4,14.2,4.4c4.5,7.5,5.5,21.1-0.2,21.1
		c-6.5,0-5.4-14,0.2-21.1"/>
	<path class="st4" d="M157.7,112.9c0.1,3.6,0.1,7.6-2.3,9.4c-2.4,1.8-7-0.7-7.4-1.5c-0.4-0.8,1.7-8.2,2.9-9.8
		C152.2,109.3,157.7,112.9,157.7,112.9z"/>
	<path class="st0" d="M148.4,170.3l15.1,20c0,0,0.9,0.1,1.8-0.1c1.1-0.3,2.3-1.1,1.7-3.3c-1-4-6.1-13.6-4.7-16.5
		c1.4-3-3.3-7.2-5.5-5.6l-6.7,4.5L148.4,170.3z"/>
	<path class="st0" d="M195.7,184.6l3,7.8l0.7,1.7l19-9.5c0,0,0.2-0.5,0.3-1.2c0.1-1.2-0.2-3-2.8-2.9c-4.1,0.2-10.8,2-13.4,0
		C199.8,178.5,194.6,182.2,195.7,184.6z"/>
	<path class="st5" d="M205.1,102.9c-2.1,9.8-2.4,29.4-15.4,41.3c-12.8,15.9-26.1,31.5-26.1,31.5l-7.8-10.5l31.1-51.5L205.1,102.9z"
		/>
	<path class="st6" d="M194.2,110.4c-0.1,4.9-1,7.1-4.5,6.8l15.4,62.3l-10.6,7.1c0,0-27.7-62-28.8-65c-1.1-3-4.7-11,1.4-20.9
		C173.3,90.9,194.5,96.4,194.2,110.4z"/>
	<path class="st4" d="M227.9,104.8c-0.8-1.2-1.9-3.2-1.9-3.2l-5.5,3.2c0,0,4,6.3,4.6,7.7c3.6,8.8,9.7,8.9,10.2,4.9
		c0.3-1.9-0.4-4.5-1.1-6.3C233.2,109.1,229.8,107.6,227.9,104.8z"/>
	<path class="st7" d="M228.7,103.3c-2,0.1-23.6-35.6-28.2-51.5c-3.2-11.1-12.8-2.5-10.4,4.8c2.4,7.4,27.8,48.5,31.9,50.5
		C225,107.7,228.6,105.8,228.7,103.3z"/>
	<path class="st8" d="M162.9,91.6c0.3,3.2,1.1,5.7,2.2,7c0.3,0.4,0.6,0.7,1,1.1c13.2,14.2,31,14.8,36.6,10.6
		c16.1-11.8,8.6-28.6,3.4-38.2c-0.3-0.5-0.5-0.9-0.8-1.4c-0.1-0.2-0.3-0.5-0.4-0.7c-1.1-2-2-3.5-2.3-4.4c-0.7-2-1.2-4.5-2-7.3
		c-1.1-4.2-2.7-9.2-5.9-14.4c0,0-10.5-6.2-20.3,1.4C166.6,51.6,161.4,78.1,162.9,91.6z"/>
	<path class="st4" d="M194,11.9c2.4,8.1,4,10.9,4.1,16.8c0.1,5.9-16.4,7.4-20.5,1.7c-1.7-7.9-2.1-10.9-1.7-13.4
		c0.3-2.5,2.8-6.6,9-7.1C191,9.5,194,11.9,194,11.9z"/>
	<path class="st9" d="M198.1,26.4c-0.3,0.4-0.3,1.1-2.9-0.9c-1-0.8-3.7-1.1-4.9,0.4c-1.2,1.5-4.6,2.9-7.3,2.5
		c-2.7-0.4-6.7-3.5-7-4.7c-0.8,2.5-1.4,12.5-1.4,14.5c0,4.5,2.4,9.8,7.4,10.8s15.8,0.9,20.5-3.7C204.6,43,200.5,38.6,198.1,26.4z"/>
	<path class="st9" d="M196.7,5.7c0.5,3.3,0.2,7.9-4.7,7.7c-4.9-0.3-8.8-1.5-8.5,0.9c0.7,4.2-0.1,9.4-5.4,7.7
		c-2.3-0.8-1.4,3.5-1.5,3.5c0,0-2.9-5-2.1-9.6c0.7-4.6,1.4-6.8,3.6-7.7c2.2-0.8,4.1-0.3,6.7-2.6c2.7-2.3,3.6-5,7.1-5
		C195.7,0.7,196.7,5.7,196.7,5.7z"/>
	<polygon class="st10" points="191.4,75.1 197.5,64.3 189.5,54.6 183.8,65.9 	"/>
	<polygon class="st10" points="177.7,76.6 183.8,65.9 175.8,56.1 170.1,67.4 	"/>
	<path class="st10" d="M197.5,64.5l7.5,9.2l0.9-1.6c-1.6-3-3-5.2-3.4-6.4c-0.7-2-1.2-4.5-2-7.3L197.5,64.5z"/>
	
		<rect x="190.4" y="53.2" transform="matrix(-0.9967 8.078652e-02 -8.078652e-02 -0.9967 385.6844 114.7095)" width="0.3" height="23.9"/>
	
		<rect x="176.7" y="54.1" transform="matrix(-0.9967 8.104059e-02 -8.104059e-02 -0.9967 358.5178 117.5656)" width="0.3" height="23.9"/>
	<path d="M204.9,70.1l0.4,5.3l0.3,0l-0.4-4.6C205.1,70.5,205,70.3,204.9,70.1z"/>
	
		<rect x="190.4" y="53.3" transform="matrix(8.054016e-02 0.9968 -0.9968 8.054016e-02 240.1224 -129.9934)" width="0.3" height="23.8"/>
	<path class="st7" d="M162.9,91.6c0.3,3.2,1.1,5.7,2.2,7c0.3,0.4,2.6,2.7,2.9,3c-2.3-3.8,3.1-33.9,3.1-37.5
		c-2.1,3.7-4.8,12.5-4.8,12.5L162.9,91.6z"/>
	
		<rect x="178.9" y="54.2" transform="matrix(8.029009e-02 0.9968 -0.9968 8.029009e-02 230.5558 -117.7572)" width="0.3" height="23.8"/>
	<path class="st8" d="M170.1,69.5c0,0-7,36.1-11.2,43.1c-2.9,1.9-4.9,1.4-8.2-1.2c0.6-6.2,8.6-46.5,12.8-55.2
		c4.2-8.7,11-10.7,11-10.7L170.1,69.5z"/>
	<line class="st11" x1="24.4" y1="162.8" x2="45" y2="166.1"/>
	<path class="st0" d="M110.7,132.4c0,0,6.6,7.5,1.1,12.4c-5.4,4.9-9-1.5-9-1.5l3.2-10.9C106,132.4,108.5,129,110.7,132.4z"/>
	<path class="st12" d="M198.7,192.4l0.7,1.7l19-9.5c0,0,0.2-0.5,0.3-1.2L198.7,192.4z"/>
	<path class="st12" d="M148.4,170.3l15.1,20c0,0,0.9,0.1,1.8-0.1l-15.2-21L148.4,170.3z"/>
	<path class="st13" d="M232.2,109.1c0,0,1.4,3.1,0.8,4.9c-0.7,1.8-1.9,0-1.9,0s-0.3-2.4-0.7-2.7c-0.4-0.2-2.7-1-3-2.2
		c-0.3-1.2-0.1-2.2,1.4-2.5C230.2,106.4,231.8,108.2,232.2,109.1z"/>
</g>
</svg>
