<?xml version="1.0" encoding="utf-8"?>
<!-- Generator: Adobe Illustrator 25.3.0, SVG Export Plug-In . SVG Version: 6.00 Build 0)  -->
<svg version="1.1" id="Layer_1" xmlns="http://www.w3.org/2000/svg" xmlns:xlink="http://www.w3.org/1999/xlink" x="0px" y="0px"
	 viewBox="0 0 119 195.6" style="enable-background:new 0 0 119 195.6;" xml:space="preserve">
<style type="text/css">
	.st0{fill:#9E5F4B;}
	.st1{fill:#F6BE8F;}
	.st2{fill:#F67B6B;}
	.st3{fill:#D39568;}
	.st4{fill:#78BCC2;}
	.st5{fill:#82BCC5;}
	.st6{fill:#B97B6E;}
	.st7{fill:#87ACBF;}
</style>
<g>
	<g>
		<g>
			<path class="st0" d="M103.3,32.3c-1-0.9-2.1-1.7-3.1-2.5c-4.7-3.9-1.5-10-7.1-12.4c-1.8-0.8-3.9-1.4-4.9-3.2
				c-0.6-1-0.8-2.2-1.1-3.4C85.6,4.9,81.8-0.4,75.6,1c-4.3,1-10.7,5.3-11.6,10.2c-0.6,3.6,0.3,8.2,0.2,11.9
				c-0.1,4.7,0.6,8.8,4.1,12.1c0.7,0.7,1.6,1.3,2.4,1.9l-2.8,4.4c1,2.1,3.6,2.7,5.7,1.9c1.9-0.7,3.4-2.3,4.9-3.9
				c0.9,0.1,1.8,0.1,2.7,0c4-0.3,8.7-1.7,11.7,1.2c2.1,1.9,2.7,5.3,4.8,7.1c3.3,2.8,8.7,0.3,10-4C109.4,38.2,106.6,35.1,103.3,32.3z
				"/>
		</g>
	</g>
	<g>
		<g>
			<path class="st1" d="M96.9,67.1c-5.3,1.3-10.9,1.5-16.4,1.6c-2.7,0.1-5.5,0.1-7.9-0.8c0.1,1.4,0.1,2.8,0,4.2
				c0,0.9-0.1,1.7-0.2,2.6c4,0.5,8,1.2,12.1,1.4c4.1,0.3,8.4,0,12.2-1.4C96.5,72.2,96.6,69.6,96.9,67.1z"/>
		</g>
	</g>
	<g>
		<g>
			<path class="st2" d="M90.1,33c0,0.1,0.1,0.1,0.1,0.2l-0.5,0.7C89.8,33.5,89.9,33.2,90.1,33z"/>
		</g>
	</g>
	<g>
		<g>
			<path class="st3" d="M75.1,32.3c-0.4,0-0.8,0-1.1,0c-0.1,0.2-0.2,0.3-0.3,0.5l0,0c-0.1,0.1-0.3,0.2-0.5,0.2c-0.1,0-0.2,0-0.3,0
				c-2.5-0.2-4.9,0.5-6.8,2.3c-0.2,0.2-0.3,0.3-0.5,0.5c-3.3,3.5-4.7,8.8-5.8,13.4c-0.8,3.1-1.4,6.3-2.2,9.4c-0.4,3.4-1,6.8-2,10
				c-1.1,3.4-2.7,6.6-3.8,10c-0.1,0.2-0.1,0.5-0.2,0.7c0.8,1.6,2,3.1,3.6,4c1.3,0.8,2.7,0.8,3.9,0.3c0.3-0.7,0.6-1.4,1-2.2
				c3.5-7.9,6.9-15.8,8.9-24.2c0.4-1.5,0.7-2.9,0.9-4.4c0.7-3.9,1.1-7.9,2.3-11.7c0.2-0.7,0.5-1.4,0.8-2.1c1.1-2.6,2.8-5,5-6.6
				C77,32.4,76,32.3,75.1,32.3z"/>
		</g>
	</g>
	<g>
		<g>
			<path class="st1" d="M87,27.5l-2.9-2c-3-2.1-5.2-5.3-6.1-9l-1.3-5.1c0,0-4.6,1.9-8.5,0.3c-0.6,2-0.9,4.1-1,6.3
				c0.5,4.1,1.7,8.6,4,8.9c4.1,0.5,5.2-0.7,5.2-0.7l0.8,7.2c0.2,1.5,1.1,2.7,2.4,3.2c2.8,1,9,4.1,10-2.7L87,27.5z"/>
		</g>
	</g>
	<g>
		<g>
			<g>
				<path class="st3" d="M118.3,106.5c-0.1,1.1-0.4,2.4-1.4,2.7c-2-1.5-3.3-4-3.6-6.6c-0.1-1.2,0-2.5-0.2-3.7
					c-0.3-2.2-1.5-4-2.7-5.8c-0.6-0.9-1.2-1.8-1.7-2.7c-4.3-6.9-8.3-14.1-9.6-22.3c-0.5-2.9-0.6-5.7-0.7-8.6
					c-0.1-2.5-0.1-5.1-0.2-7.7c-0.2-5-1-10.2-3.4-14.4c-0.2-0.4-0.4-0.7-0.7-1.1c-0.8-1.2-1.8-2.4-2.7-3.6l0.2-0.4
					c0.7-0.1,1.4-0.2,2.1-0.2c1.8,0.9,3.5,2,5,3.3c0.8,0.7,1.5,1.5,2.1,2.4c1.6,2.2,2.7,4.9,3.4,7.6c1.5,5.8,1.8,12,3.2,17.8
					c0.5,2.1,1.2,4.2,2,6.2c0.2,1.3,0.5,2.5,0.8,3.7c1.2,4.6,3,9.2,4.5,13.8C117.1,93.5,118.9,99.9,118.3,106.5z"/>
			</g>
		</g>
		<g>
			<g>
				<path class="st1" d="M118.3,106.5c-0.1,1.1-0.4,2.4-1.4,2.7c-2-1.5-3.3-4-3.6-6.6c-0.1-1.2,0-2.5-0.2-3.7
					c-0.3-2.2-1.5-4-2.7-5.8c-0.6-0.9-1.2-1.8-1.7-2.7c2.3-0.8,4.5-1.8,6.2-3.3C117.1,93.5,118.9,99.9,118.3,106.5z"/>
			</g>
		</g>
	</g>
	<g>
		<g>
			<path class="st1" d="M51.4,79.8c-0.8,3.1-1.2,6.4-1.5,9.6c-0.3,3-0.6,6-1,8.9c0.1,0.2-0.2,0.9,0,1.1c-1.3,2.2-1.5,4.3-1.5,6.9
				c0,1.4,0.3,2.8,1.3,3.7c0.2,0.1,0.4,0.3,0.5,0.2c0.2-0.1,0.2-0.3,0.3-0.5c0.3-1.2,0.7-2.4,1-3.6c0-0.2,0.1-0.3,0.2-0.5
				c0.3-0.3,0.8,0.1,1.1,0.5c0.2,0.4,0.6,0.9,1,0.8c0.4-2.2,0.6-4.5,0.5-6.8c0-0.1,0-0.2,0-0.3c0,0,0,0,0.1,0c0-1,0-1.5,0.1-2.4
				c0.1-1.1,0.6-2.1,1-3.1c1.8-4.1,3.6-8.7,5.5-12.8C57.1,81.6,54.1,81.1,51.4,79.8z"/>
		</g>
	</g>
	<g>
		<g>
			<g>
				<g>
					<path class="st4" d="M71.3,74.8c-0.1,0.1-0.2,0.1-0.3,0.2c-0.1,0.2-0.2,0.3-0.3,0.5c0.3-0.2,0.6-0.4,0.8-0.7
						C71.4,74.8,71.4,74.8,71.3,74.8z"/>
				</g>
			</g>
			<g>
				<g>
					<path class="st5" d="M111.4,188.3c-1.1-1.3-2.3-2.5-2.7-3c-1.1-1.3-2.4-2.5-2.8-4c-0.4-1.4-0.5-3.1-0.7-4.5
						c-0.1-0.3-0.1-0.7-0.1-1l-0.5-5.2l0-0.1c2.9,0,2.8-3.9,2.8-3.9s1.3-27.2,1.2-30.1c-0.8-19.1,0.2-37.9-8-55.7
						c-0.8-1.7-2.1-4.8-3.2-7.1c-1-0.4-2-0.5-3.1-0.5c-2.6,0.8-5.2,1.2-8,1.3c-0.7,0.1-1.3,0.3-2,0.4c-2.4,0.3-4.8,0.3-7.2,0.4
						c-1.8,0-3.7,0.1-5.5-0.4c-9.2,13.4-1.7,31.6-1.7,46.5c0,9.6-4,17.9-6.3,27c-1.8,6.8-3.1,8.4-4.3,15.2c0,0,0,0.1,0,0.1
						c-0.5,3-1.1,6-1.9,9c-0.1,0.2-0.1,0.4-0.2,0.6c-0.1,0.3-0.2,0.5-0.3,0.8c0,0.1-0.1,0.3-0.1,0.4c-0.1,0.2-0.1,0.4-0.2,0.6
						c-0.1,0.2-0.2,0.5-0.2,0.7c-0.1,0.4-0.2,0.7-0.3,1c-0.5,2,0.3,2.7,1.5,4.2c2,2.4,5.4,7.1,8.8,7.7c2.1,0.4,1.3-1.5,0.6-3
						c-0.2-0.5-0.4-1-0.6-1.4c-0.1-0.1-0.1-0.2-0.1-0.3c-0.1-0.1-0.1-0.3-0.2-0.4c-0.1-0.2-0.1-0.4-0.2-0.6c0,0,0,0,0-0.1
						c0-0.2-0.1-0.3-0.2-0.5c0-0.1-0.1-0.2-0.1-0.3c0-0.1-0.1-0.2-0.1-0.3c0-0.1-0.1-0.2-0.1-0.3c0-0.1-0.1-0.2-0.1-0.3
						c-0.4-1.4-1.3-3-1.4-4.4c-0.1-1.5,0.6-3.3,1-4.7c0.4-1.6,0.9-3.2,1.4-4.8c0.5,0,1,0,1.6-0.1l13.3-26.6c0-1.7,1.7-4.9,2.1-6.7
						c0.6-3,0.9-6.1,1.2-9.1c0.6-6.1,0.9-12.3,1.8-18.4c0.3-2,1.6-10.2,3-4.2c1.9,8.3,1.9,17,3.6,25.4c1.6,8.1,2,16.4,2.4,24.6
						c0.4,7.9,0.1,10.9,1.6,18.7c0,0.1,0,0.2,0.1,0.2c0.7,3.6,2.2,6.7,2.2,10.5c0,0.5,0,1-0.1,1.6c-0.1,1-0.1,2.2,0.3,2.8
						c0.7,1.4,3.6,2.5,5,3.3c2.1,1.3,6,4.5,8.7,4C114.7,192.9,113.2,190.4,111.4,188.3z"/>
				</g>
			</g>
		</g>
		<g>
			<g>
				<path class="st1" d="M66.3,188.6c-3.3-0.6-6.8-5.3-8.8-7.7c-1.2-1.5-2-2.3-1.5-4.2c0.1-0.3,0.2-0.7,0.3-1
					c0.1-0.2,0.2-0.5,0.2-0.7c0.1-0.2,0.1-0.4,0.2-0.6c0-0.1,0.1-0.3,0.1-0.4c0.1-0.3,0.2-0.5,0.3-0.8c0.1-0.2,0.1-0.4,0.2-0.6
					c0.8-3,1.4-5.9,1.9-9c1.3,1.2,3.8,2.7,8.4,3.3c-0.5,0.1-1.1,0.1-1.6,0.1c-0.5,1.6-1,3.2-1.4,4.8c-0.4,1.5-1.1,3.2-1,4.7
					c0.1,1.5,1,3,1.4,4.4c0,0.1,0.1,0.2,0.1,0.3c0,0.1,0.1,0.2,0.1,0.3c0,0.1,0.1,0.2,0.1,0.3c0,0.1,0.1,0.2,0.1,0.3
					c0.1,0.2,0.1,0.3,0.2,0.5c0,0,0,0,0,0.1c0.1,0.2,0.1,0.4,0.2,0.6c0.1,0.1,0.1,0.3,0.2,0.4c0,0.1,0.1,0.2,0.2,0.3
					c0.2,0.5,0.4,0.9,0.6,1.4C67.6,187.1,68.4,189,66.3,188.6z"/>
			</g>
		</g>
		<g>
			<g>
				<path class="st1" d="M112.6,193.3c-2.7,0.5-6.6-2.8-8.7-4c-1.4-0.8-4.2-1.9-5-3.3c-0.4-0.7-0.3-1.8-0.3-2.8
					c0-0.6,0.1-1.2,0.1-1.6c0-3.8-1.4-6.9-2.2-10.5c1.7,0.1,4.7,0,8-0.5l0.5,5.2c0,0.3,0,0.7,0.1,1c0.2,1.4,0.3,3.2,0.7,4.5
					c0.4,1.5,1.7,2.8,2.8,4c0.4,0.5,1.6,1.7,2.7,3C113.2,190.4,114.7,192.9,112.6,193.3z"/>
			</g>
		</g>
		<g>
			<g>
				<path class="st5" d="M66.3,188.6c-3.3-0.6-6.8-5.3-8.8-7.7c-1.2-1.5-2-2.3-1.5-4.2c0.1-0.3,0.2-0.7,0.3-1
					c0.1-0.2,0.2-0.5,0.2-0.7c1.5,3.5,3.9,6.5,6.9,8.8c0.2,0.2,0.5,0.4,0.8,0.4c0.6,0.1,1.2-0.5,1.3-1.1c0-0.1,0.1-0.2,0.1-0.3v0
					c0,0,0,0,0,0.1c0.1,0.2,0.2,0.4,0.2,0.6c0.1,0.1,0.1,0.3,0.2,0.4c0,0.1,0.1,0.2,0.2,0.3c0.2,0.5,0.4,0.9,0.6,1.4
					C67.6,187.1,68.4,189,66.3,188.6z"/>
			</g>
		</g>
		<g>
			<g>
				<path class="st5" d="M112.6,193.3c-2.7,0.5-6.6-2.8-8.7-4c-1.4-0.8-4.2-1.9-5-3.3c-0.4-0.7-0.3-1.8-0.3-2.8
					c3.3,2.6,7.1,4.7,11.1,6.1c0.5,0.2,1.2,0.3,1.5-0.2c0.1-0.2,0.1-0.5,0.2-0.8C113.2,190.4,114.7,192.9,112.6,193.3z"/>
			</g>
		</g>
	</g>
	<g>
		<g>
			<g>
				<path class="st1" d="M12,157.6c-1.4,0.7-2.7,1.5-4,2.4c-0.5,0.4-0.7,0.6-1.2,1c0.3,0.7,0.5,1.5,0.8,2.3c0,0.3,0,0.5,0,0.7
					c0.1,2-0.3,3.9-1,5.8c-1.6,4.1-3.4,8.2-5.4,12c-0.3,0.6-0.7,1.5-0.6,2.4c0.1,0.6,0.4,1.1,0.7,1.6c1.1,1.6,2.6,2.9,4.3,3.8
					c0.2,0.1,0.4,0.1,0.6,0.1c0.2,0,0.5-0.1,0.7-0.2c0.4-0.2,0.7-0.7,0.7-1.2c0.1-1.1-0.4-2.1-0.9-3.1c-0.5-0.9-0.9-1.8-0.8-2.6
					c0.1-0.4,0.3-0.9,0.6-1.3c0.9-1.5,2-3,3-4.4c2.4-3.5,5-7,5.9-11.7c0.6-2.7,0-6.1-0.5-9C13.9,156.7,13,157.2,12,157.6z"/>
			</g>
		</g>
		<g>
			<g>
				<path class="st1" d="M31.5,192.3L31.5,192.3c-0.5-0.4-1.1-0.8-1.7-1.2c-1-0.6-2-1.2-2.1-2c-0.3-3,0.3-7.5,0.9-11.3
					c0.3-2.2,0.6-4.3,0.8-6c0.1-1,0.1-1.6,0.2-2.2c0.1-0.8,0.2-1.6,0.2-3.1c0.1-3,0-5.6-0.2-7.9l0-0.6l-0.5,0c-0.2,0-0.5,0-0.7-0.1
					c-2.1-0.2-4.3-0.4-6.3,0.3l-0.5,0.2l0.1,0.6c0.1,1.1,0.2,2.1,0.2,3.2c0.1,1.6,0.2,3.3,0.5,4.9c0.1,0.9,0.3,1.7,0.4,2.4
					c0.3,1.7,0.5,3,0.5,5.3c0,0.9,0,2,0,3.1c-0.1,3.1-0.1,6.5,0.2,8.9c0,0,0,0.1,0,0.1c0.2,1.4,0.4,2.6,0.4,4.2c0,0.1,0,0.3,0,0.4
					l0,0.2c-0.1,0.7,0.1,1.4,0.5,1.9l0.1,0.1l0.1,0.1c0.7,0.3,1.4,0.5,2.1,0.6c0.6,0.1,1.3,0.2,2,0.2c0.1,0,0.1,0,0.2,0l0.1,0
					c0.1,0,0.3,0,0.4,0c0.2,0,0.5,0,0.7,0c0.3,0,0.6,0,0.8,0l0.1,0c0.1,0,0.2,0,0.3-0.1l0.1,0l0.1,0c0.4-0.2,0.6-0.6,0.6-1
					C31.9,193,31.8,192.6,31.5,192.3z"/>
			</g>
		</g>
		<g>
			<g>
				<path class="st6" d="M23,120.3c0.1,0,0.1,0,0.2,0c-0.1-0.6,0.1-1.2,0.8-1.4c1.7-0.7,3.1-1.8,4-3.5c0.9-1.7,1.1-3.8,1.4-5.7
					c0-0.1,0-0.2,0.1-0.3c-0.1-0.7-0.2-1.3-0.5-2c-1.2-3.2-4.6-5.8-7.8-5.3c-3.6,0.5-6.5,2.5-7.4,6.4c-0.3,1.2,0,3.1-1.3,3.7
					c-1.6,0.6-3.2-2.2-4.5-2.6c-1.6-0.6-3.4,0.7-4,2.3c-0.7,1.7-0.4,3.6,0,5.3c0.3,1.2,0.7,2.5,1.5,3.4c1,1.2,2.5,1.9,4,1.7
					c1.5-0.1,2.9-1,3.9-2.2c0.9-1.3,1.4-2.8,1.8-4.4c0.7,2,2.1,3.4,3.8,4.4C20.9,121.3,21.2,120.5,23,120.3z"/>
			</g>
		</g>
		<g>
			<g>
				<path class="st1" d="M7.3,143c-1.3,5.4-2.5,10.8-3.8,16.3c1.3,0.7,3,0.1,3.9-1l-0.1,0.2c0-0.1,0.1-0.2,0.1-0.2
					c0.3-0.4,0.5-0.8,0.6-1.3c1.5-3.2,2.7-6.5,3.6-9.9c0.5-1.9,1-3.8,1.7-5.6c0,0,0,0,0,0c0.1-0.2,0.1-0.3,0.2-0.5
					c0.3-0.8,0.7-1.5,1.1-2.3c0.7-1.3,1.4-2.6,2.1-3.9c1.3-2.6,2.4-5.3,3.2-8.1c0.4-1.3,0.5-3.2-0.7-3.8c-0.9-0.5-1.9,0.1-2.7,0.7
					c-3.7,2.9-5.8,7.4-7.3,12.1C8.5,138,7.9,140.5,7.3,143z"/>
			</g>
		</g>
		<g>
			<g>
				<path class="st7" d="M19.2,122.8c-0.9-0.5-1.9,0.1-2.7,0.7c-3.2,2.6-5.2,6.2-6.7,10.3c1,1.8,2.6,2.2,4.7,2.3
					c0.5,0,0.9,0.1,1.3,0.4c0.3-0.6,0.6-1.1,0.9-1.7c1.3-2.6,2.4-5.3,3.2-8.1C20.3,125.2,20.4,123.4,19.2,122.8z"/>
			</g>
		</g>
		<g>
			<g>
				<path class="st1" d="M40.8,117.2c0.9-0.9,1.9-1.9,2.7-2.9c1.2-1.4,2-3.4,3.2-4.7c1-1.1,1.2-0.7,2.7-1.4c1.5-0.7,2.6-2.2,3.5-3.5
					c-2.5-0.7-3.7-1.2-5.9,0.2c-2.8,1.8-5.5,3.9-8.1,6.2c-1.4,1.3-2.7,2.6-4.3,3.7c0,0,0,0,0,0c-0.1,0.1-0.3,0.2-0.4,0.3
					c-0.7,0.5-1.4,0.9-2,1.3c-1.2,0.7-2.5,1.3-3.7,2c-2.4,1.4-4.7,3-6.8,4.9c-1,0.9-2,2.4-1.4,3.6c0.5,0.9,1.6,1,2.6,1
					c4.6-0.3,8.6-2.7,12.3-5.8C37.1,120.5,39,118.9,40.8,117.2z"/>
			</g>
		</g>
		<g>
			<g>
				<path class="st7" d="M31.7,116.6c-1.1,0.6-2.2,1.2-3.3,1.8c-2.4,1.4-4.7,3-6.8,4.9c-1,0.9-2,2.4-1.4,3.6c0.5,0.9,1.6,1,2.6,1
					c4.2-0.3,8-2.4,11.4-5.1C34.3,120.5,33.4,118.3,31.7,116.6z"/>
			</g>
		</g>
		<g>
			<g>
				<path class="st7" d="M30,167.7c0.5-1.6,0.6-3.7,0.6-6.5c-0.1-9.7-1.2-19.1-0.7-28.9c0.1-1.7,0.1-3.5-0.7-5.1
					c-1.3-2.7-5-7.4-8.2-6.5c-5,1.3-6.3,11.5-7.6,15.8c-2.7,8.6-5.9,13.9-11,21.2c-0.2,0.3-0.4,0.6-0.4,0.9c0,0.2,0.2,0.4,0.3,0.6
					c1.6,2.1,3.2,4.2,4.8,6.3c3.8,5,11.5,5.8,17.1,5.5C27.6,170.9,29.2,169.8,30,167.7z"/>
			</g>
		</g>
		<g>
			<g>
				<path class="st1" d="M21.8,118.2c1.3,0.6,2.8,0.8,4.2,0.8l-0.1-0.1c0,0,2.7-0.8,3.3-2.3c2.1-5.1-4.5-11.5-4.5-11.5
					c-1,3.8-5.5,5.4-5.5,5.4l1.5,3.6C21.4,115.4,21.7,116.8,21.8,118.2z"/>
			</g>
		</g>
		<g>
			<g>
				<path class="st1" d="M20.1,112c0.6,3.8,1.1,8.2-1,11.3c2.2,1.8,5,2.7,7.7,2.6c-0.5-2.7-0.9-5.5-0.4-8.2c0.3-1.3,0.8-2.8,0-3.8
					c-0.3-0.4-0.7-0.7-1.1-0.9c-0.8-0.5-1.7-0.8-2.6-1.1c-0.5-0.1-1-0.3-1.4-0.1c-0.5,0.1-0.9,0.6-0.9,1.1c0,0.1,0,0.2,0.1,0.3
					c0.1,0,0.2-0.2,0.1-0.2L20.1,112z"/>
			</g>
		</g>
		<g>
			<g>
				<path class="st1" d="M20.8,114.4c-0.6-0.2-1.4-0.3-2-0.1c-0.6,0.3-1.1,1-1,1.7c0.2,1.1,1.5,1.4,2.5,1.2c0.7-0.1,1.4-0.5,1.8-1.1
					c0.4-0.6,0.5-1.5,0-2.1c-0.4-0.6-1.4-0.6-1.8,0.1L20.8,114.4z"/>
			</g>
		</g>
	</g>
	<g>
		<g>
			<path class="st3" d="M99,55.8c-0.2,1.3-0.4,2.5-0.6,3.8c-0.5,3.1-1.5,6.4-1.3,9.6c0.1,2.2,1.5,4.7-1.5,5c-4.9,0.5-9.8,1-14.7,1.5
				c-3.1,0.3-6.3,0.6-9.3,0c-0.7-0.1-1.4-0.4-1.6-1.1c-0.4-1.2,1.3-3,1.4-4.4c0.2-1.9-0.8-4.2-1.2-6c-0.6-2.3-1-4.6-1.3-7
				c-0.6-5.4-0.5-10.8,0.4-16.2c0.1-1,0.1-2,0.3-3c0.2-1.2,0.6-2.4,1.3-3.4c0.6-0.8,1.3-1.3,2.1-1.7c0.2-0.1,0.3-0.2,0.5-0.2
				c0.5-0.2,0.9-0.3,1.4-0.4c1.5-0.3,3.1-0.4,4.6-0.3c6.9,0.2,14.1,0.3,14.1,0.3c0.6,1.2,1.3,2.8,2,4.8C97.8,43.2,99.6,51.8,99,55.8
				z"/>
		</g>
	</g>
	<g>
		<g>
			<path class="st1" d="M98.8,35.6c-1,0.5-2,1-3,1.5c-0.3,0.1-0.7,0.3-1,0.4c-6.9,2.8-14.6,3.4-21.8,1.6c-1.1-0.3-2.2-0.6-3.3-1
				c-0.4-0.1-0.8-0.3-1.2-0.5c-1-0.4-2.1-1-2.9-1.8c0.2-0.2,0.3-0.3,0.5-0.5c2-1.9,6.5-3.1,9-3c1.5-0.3,3.1-0.4,4.6-0.3
				c6.9,0.2,14.1,0.3,14.1,0.3C95.6,33.2,97.3,34.3,98.8,35.6z"/>
		</g>
	</g>
</g>
</svg>
