<?xml version="1.0" encoding="utf-8"?>
<!-- Generator: Adobe Illustrator 25.3.0, SVG Export Plug-In . SVG Version: 6.00 Build 0)  -->
<svg version="1.1" id="Layer_1" xmlns="http://www.w3.org/2000/svg" xmlns:xlink="http://www.w3.org/1999/xlink" x="0px" y="0px"
	 viewBox="0 0 111.6 195.6" style="enable-background:new 0 0 111.6 195.6;" xml:space="preserve">
<style type="text/css">
	.st0{fill:#F9A183;}
	.st1{fill:#013955;}
	.st2{fill:#41657C;}
	.st3{fill:#B97B6E;}
	.st4{fill:#9E5F4B;}
	.st5{fill:#865843;}
	.st6{fill:#DFECFE;}
	.st7{fill:#C9DCF2;}
	.st8{fill:#87ACBF;}
</style>
<g>
	<g>
		<g>
			<path class="st0" d="M16.8,164.8l-5.2,5.8l-2.4,2.7c-0.9,1.1-0.9,2.6,0.1,3.6l9,9.4c0,0,0.1,0.1,0.1,0.1c0.7,0.6,1.7,0.6,2.5,0
				c0.7-0.5,0.9-1.5,0.5-2.3l-3.3-6.5c-0.2-0.3-0.2-0.6-0.2-1c0-0.1,0-0.2,0-0.2c0-0.3,0.2-0.5,0.4-0.8c0.1-0.1,0.2-0.2,0.3-0.3
				l4.5-4.9L16.8,164.8z"/>
		</g>
	</g>
	<g>
		<g>
			<path class="st1" d="M11.6,170.6l-2.4,2.7c-0.9,1.1-0.9,2.6,0.1,3.6l9,9.5c0,0,0.1,0.1,0.1,0.1c0.7,0.6,1.7,0.6,2.5,0
				c0.7-0.5,0.9-1.5,0.5-2.3l-3.3-6.5c-0.2-0.3-0.2-0.6-0.2-1c-1.4-1.9-3.1-3.7-5-5.3C12.5,171.2,12,170.9,11.6,170.6z"/>
		</g>
	</g>
	<g>
		<path class="st2" d="M64.4,131.6c-10.2,16.5-25,27.1-40.1,38.9c-1.1,0.9-2.8,1-4,0.2c-1.3-0.8-2.5-1.8-3.7-2.8
			c-1.3-1.1-1.5-3-0.5-4.4c5.1-6.9,12.1-11.1,17.5-17.7c5.3-6.5,9.3-14,11.8-21.9c2-6.2,3-12.7,3-19.2c0-3.4-3-12.9,0.8-15
			c2.5-1.4,10.4,0.8,13.3,1.1c2.1,0.2,7.8-0.2,9.4,0.9c2,1.5,1.4,5.2,1.3,7.7C72.8,110.1,70,122.4,64.4,131.6z"/>
	</g>
	<g>
		<g>
			<path class="st3" d="M44.1,112.2c-0.8-3.7-5-4.3-9.1-5c-2.2-0.4-4.3-0.6-6.5-0.9c-5-1.3-9.9-2.5-14.9-3.8c-0.9-0.5-2-1-3-0.8
				c0,0-0.1,0-0.1,0c-1.5-0.3-3,0.4-3.9,1.6c-1.5,0.7-2.1,2.2-2.7,3.8c-0.9,2.6-1.9,5.3-2.5,8c-0.6,2.5-1,5-0.9,7.6
				c0,0.7,0,1.5,0.7,1.9c0,0.1,0.1,0.2,0.1,0.3c0,0.3-0.1,0.5-0.1,0.8c-0.1,0.7-0.2,1.5,0.2,2.2c0.3,0.5,0.8,0.8,1.3,1
				c9.6,5,20.4,7.9,31.2,8.4c0.3,0,0.5,0,0.8,0c2.4,0.1,4.3-2.8,4.9-5c1.5-5.7,4-11.8,4.7-17.7C44.3,113.7,44.3,112.9,44.1,112.2z"
				/>
		</g>
	</g>
	<g>
		<g>
			<path class="st3" d="M16,106c2.1-3.9,4.5-8,7.6-10c2.8-1.8,6.1-1.6,8,0.9c1.9,2.5,2.2,7.2,0.4,10.8c-0.6,0-1.1,0-1.7,0.1
				c1.2-2.7,0.9-6.1-0.5-7.8c-1.4-1.7-3.8-1.8-5.9-0.4c-2.1,1.4-3.7,4.1-4.5,7c-1.2-0.4-2.3-0.8-3.5-1.2L16,106z"/>
		</g>
	</g>
	<g>
		<g>
			<path class="st4" d="M0.5,122.6c0.6,1.5,1.7,1.8,3.2,2.4c9.2,3.9,18.9,6.5,28.8,7.7c0,0.6-0.8,0.8-1.4,0.8
				c-8.5-0.2-17-2.1-24.7-5.7c-2.1-0.9-4.1-2-5.7-3.7c-0.3-0.3-0.3-1.2,0.1-1L0.5,122.6z"/>
		</g>
	</g>
	<g>
		<path class="st0" d="M111.3,104c0,0.1,0,0.2,0,0.2c-6.4,1.4-11.8-5.1-14.7-9.6c-2.1-3.3-4.8-4.5-7.6-7.4c-7.5-8-7-17.2-12.1-26
			c-3.3-5.8-6-12.1-7.9-18.5c-0.6-2.1-1.1-4.4-0.1-6.4c1.5-3,6-3.4,9-1.7c2.9,1.7,4.6,4.9,5.9,7.9c3.7,8.4,4.3,16.9,6.9,25.4
			c1.2,3.9,4.1,7.9,5.9,11.6c0.4,0.9,0.8,1.7,1.2,2.5c1,1.9,2,4,3.2,5.9c0.9,1.5,1.9,3,3,4.3c0.7,0.8,3,2.1,5,3.8
			c1,1.6,1.8,2.6,2.2,4.4C111.4,101.6,111.5,102.9,111.3,104z"/>
	</g>
	<g>
		<g>
			<path class="st0" d="M85.7,180.3l1.5,7.8l-0.2,3.6c-0.1,1.4,0.9,2.5,2.4,2.6l13.1,0.7c0.1,0,0.1,0,0.2,0c0.9,0,1.8-0.7,2-1.7
				c0.2-0.9-0.2-1.7-1-2l-6.8-2.5c-0.3-0.1-0.6-0.3-0.8-0.5c-0.1-0.1-0.1-0.1-0.1-0.2c-0.2-0.2-0.2-0.5-0.2-0.8
				c0-0.1,0.1-0.3,0.1-0.4l-1.5-6.7L85.7,180.3z"/>
		</g>
	</g>
	<g>
		<g>
			<path class="st2" d="M87.1,188.1l-0.2,3.5c-0.1,1.4,0.9,2.5,2.4,2.6l13.4,0.9c0.1,0,0.1,0,0.2,0c0.9,0,1.8-0.7,2.1-1.6
				c0.2-0.9-0.2-1.7-1-2L97,189c-0.3-0.1-0.6-0.3-0.8-0.6c-2.4-0.5-4.9-0.6-7.4-0.5C88.2,187.9,87.7,188,87.1,188.1z"/>
		</g>
	</g>
	<g>
		<path class="st5" d="M69.5,19.1c0.8,0.6,1.5,1.4,2,2.3c0.4,0.9,0.4,2-0.1,2.9c-0.6,0.8-1.7,1.3-2.7,0.9c-0.2-0.7,0-1.3,0.1-2
			c0.3-1.4,0.7-2.8,1-4.3c0-0.1-0.1,0,0,0.1L69.5,19.1z"/>
	</g>
	<g>
		<path class="st2" d="M83.5,179.5c0.3,1.2,0.5,2.4,0.7,3.6c0.6,3.5,11.3,1,11.2-2.7c-0.2-6.9-0.5-15.7-1.5-22.4
			c-2-14.5-6.2-28.7-13.9-40.6c-3.3-5.1-7.7-9.2-11.2-14c-3-4.1-4.8-8.7-5.1-13.8c-2.9-3.1-8.2-4.2-12.9-4.5
			c-2.4-0.1-5.1-0.1-7.3,1.2c-0.1,0-0.2,0.1-0.3,0.2c-1.9,1.2-3,3.7-2.4,5.5c-0.1,0.1-0.1,0.3-0.1,0.4c-4.9,15.4,8.7,30.4,18,39.9
			C71.3,145.4,79.5,161.3,83.5,179.5z"/>
	</g>
	<g>
		<path class="st6" d="M77.7,59.5c-0.5,1.7-1.1,3.3-1.6,5c-0.2,0.6-0.4,1.3-0.4,2c0,0.9,0.4,1.8,0.8,2.6C79.9,76,85,82.3,89.8,88.1
			c1.8,2.2,2.1,3.2,4.3,5c3.9,3.3,4.9,0.5,9.1-1.4c0-3.1-2.4-4.1-2.4-6.6c-0.4-0.8-4-4.7-4.4-5.6c-1.7-3.7-9-28.6-12.7-37
			c-0.3-0.7-0.6-1.4-0.9-2c-0.4-6.8-5.9-12.4-11.8-16.1c-3.9-2.4-8.2-0.4-12.2,0.3c-4.9,0.9-9.5,3-13.5,6c-1.7,1.4-3.3,3-4.2,5
			c-0.6,1.5-0.9,3.1-1,4.7c-1.2,11-1.9,22.5-1.2,33.6c0.2,3.4,1.1,7.1,1,10.5c-0.1,2.8-1.3,5.2,0.4,7.8c1.8,2.9,6.8,4.6,9.9,5.4
			c6.2,1.6,12.9,3.2,18.9,1.1c4.1-1.5,5.4-2.6,6.1-6.3c0.6-3.3,1.3-8.1,1.1-11.5c0-0.1,0-0.3,0-0.4c-0.2-6,0.5-12.2,1.3-18.2
			c4.3,8.4,4.3,17.2,11.4,24.8c0.3,0.3,0.6,0.6,0.8,0.9L77.7,59.5z"/>
	</g>
	<g>
		<path class="st0" d="M28.6,84.2c0.1-2.3,0.4-4.6,0.7-6.9c-3.2,0.2-6.5,1.1-9.7,1.6c0.1,1.7,0.5,3.4,0.9,5.2
			c0.6,2.8,1.1,5.6,0.6,8.2c-0.1,0.4-1,2.8-1.7,5.2c0,0,0,0,0,0c0.1,0.2,0.2,0.3,0.3,0.5c0,0.1,0.1,0.2,0.2,0.3
			c0.1,0.1,0.3,0.3,0.4,0.4c0.1,0.1,0.3,0.2,0.3,0.2c0.1,0.1,0.3,0.1,0.4,0.2c-0.5-0.3,0.4,0.1,0.6,0.2c0.2,0,0.3,0.1,0.5,0.1
			c0,0,0,0,0,0c0,0,0,0,0.1,0c0.8,0,1.5,0,2.3,0c0,0,0,0,0.1,0c0,0,0.1,0,0.1,0c0.2,0,0.4-0.1,0.6-0.1c0.4-0.1,0.8-0.2,1.2-0.3
			c0.3-0.1,0.6-0.2,0.9-0.3c2.5-4.2,1.8-5.6,1.3-10.1C28.6,87.1,28.5,85.7,28.6,84.2z"/>
	</g>
	<g>
		<path class="st0" d="M72.5,11.7c-3.1,2.2-5.4,5.3-7.8,8.2c-2.8,3.3-2.9,4.9,1.4,7.6c2.4,1.5,6.1,4.1,8.6,2.2
			c1.6-1.2,2.8-6.2,3.5-8c0.9-2.6,4.3-11.5-1-11.9C75.7,9.9,74.1,10.6,72.5,11.7z"/>
	</g>
	<g>
		<path class="st5" d="M87.3,4.5c-0.1-0.7-0.4-1.3-0.8-1.9c-0.4-0.6-1-1-1.6-1.4c-3.4-1.7-7.4,0.4-11.2,0c-1.5-0.2-3-0.7-4.4-0.2
			c-0.9,0.3-1.6,0.9-2.2,1.6c-0.1,0.2-0.3,0.3-0.4,0.5c-2,1.5-2.8,4.2-2.7,6.8c0.1,1.9,0.7,3.5,1.5,5.3c0.6,1.2,1.3,2.4,1.7,3.7
			c0.2,0.1,0.3,0.1,0.5,0.1c0.1,0,0.6,0.1,0.6,0.1c0.3,0,0.7,0.1,1,0.1c0.6,0,1.6,0,2-0.1c0.9-0.1,1.8-0.3,2.7-0.6
			c0.1-0.1,0.2-0.1,0.4-0.2c0.5-0.5,1-1.1,1.5-1.6c1.4-1.4,3-2.5,4.6-3.5c0.6-0.4,1.3-0.8,2-1.2l0,0c0.1-0.1,0.3-0.2,0.4-0.3
			C85.7,10.2,88.1,8.4,87.3,4.5z"/>
	</g>
	<g>
		<path class="st0" d="M80.6,26c0.6-1.1,1.2-2.2,1.9-3.3c1.2-2,1.7-4.3,1.6-6.6c-0.1-3-0.5-6-0.8-8.2c-0.1-0.9-1.2-1.3-1.9-0.8
			C80,8,78.7,9.1,77.4,9.3c-1.6,0.2-3.2,0.2-4.8,0c-0.4-0.1-0.8,0.3-0.8,0.7l0.1,5.4c0,0.2-0.1,0.3-0.2,0.5
			c-0.2,0.2-0.6,0.2-0.8-0.1l-0.3-0.5c-0.3-0.5-0.8-0.8-1.4-1l-0.5-0.2c-0.7-0.2-1.4,0.2-1.5,0.9c-0.2,1,0.1,1.7,0.9,2.2l1.1,0.3
			v1.8c0,0.3,0.1,0.7,0.3,0.9C72.7,25.6,77.8,26.2,80.6,26z"/>
	</g>
	<g>
		<path class="st6" d="M59.2,37.8c-2,2.9-4.7,5.2-7.5,7.4c-4.9,3.9-11.3,7-15.6,11.4c-4,4.1-5.4,9.6-6,15.1
			c-0.4,4.1-1.3,8.3-1.4,12.5c0,0.6-5.4,0.5-6,0.3c-2.5-0.6-2.5-0.7-3.8-2.7c-1.8-2.8-2.1-7.3-2.1-10.5c0-9.4,5.7-19.2,11.2-26.7
			c4.2-5.7,9.7-10.5,16-14c3.6-2,12.4-7,16.5-4C64,29.3,61.1,35,59.2,37.8z"/>
	</g>
	<g>
		<path class="st7" d="M77.8,33.8C77.8,33.8,77.8,33.8,77.8,33.8c-1.2-0.6-2.3-1.4-3.6-1.4c-2.2-0.1-2.3,2.1-4,2.9
			c-2.3,1.1-4.7-1-6.3-2.4c-1.8-1.5-3.5-3.2-5.1-4.9c-0.3-0.4-0.9,0.2-0.5,0.5c1.7,1.8,3.5,3.6,5.4,5.2c1.5,1.2,3.1,2.6,5.2,2.6
			c0.7,0,1.5-0.2,2.1-0.6c0.8-0.5,1.1-1.5,1.8-2.1c1.3-1.1,3-0.1,4.3,0.6c0.2,0.1,0.5,0.2,0.7,0.3C77.7,34.3,77.7,34,77.8,33.8z"/>
	</g>
	<g>
		<path class="st7" d="M80.9,46.9c-0.6,3.8-1,7.7-1.8,11.4c-0.3,1.7-1.1,3.2-1.9,4.7c-0.7,1.2-1.2,2.5-1.1,3.9c0,0.5,0.8,0.5,0.8,0
			c-0.2-1.8,0.8-3.2,1.6-4.7c0.7-1.3,1.2-2.6,1.4-4.1c0.6-3.7,1.1-7.4,1.7-11C81.7,46.6,81,46.4,80.9,46.9z"/>
	</g>
	<g>
		<path class="st7" d="M71,63.7c0-0.7,0-1.3,0-2c-0.3,1.1-1,2.2-1.4,3.3c-1.4,3.5-0.3,7.3-1.2,10.9c-0.8,3.2-2.9,5.8-3.9,9
			c-0.5,1.7-0.5,3.3-0.2,5c0.4,2.2,1.3,4.5,0.3,6.7c-0.2,0.4,0.4,0.8,0.7,0.4c1.5-3.1-0.4-6.2-0.4-9.3c0-3.4,2.3-6.4,3.6-9.5
			c1.4-3.4,0.8-6.8,1.2-10.3C69.8,66.3,70.4,65,71,63.7C71,63.7,71,63.7,71,63.7z"/>
	</g>
	<g>
		<path class="st8" d="M76.2,35.8c-0.7-0.8-1.4-1.7-2-2.6c-0.7,0.9-1.3,1.9-1.8,3c0.2,0.7,0.6,1.3,0.9,1.6c0,0,0.1,0,0.1,0.1
			c0.2,0.2,0.4,0.4,0.6,0.6c-0.2,4-2.1,7.6-4.3,10.5c-0.4,0.5-0.7,1-1.1,1.5c-0.9,1.3-1.8,2.5-2.9,3.7c-0.5,0.5-1,1-1.5,1.5
			c-1.1,1.3-2.2,2.5-3.2,3.8c-2.1,2.6-4.2,5.6-4.3,9.4c0.6,1.5,1.1,3,1.6,4.5c0.9-2.4,2.4-4.4,4.1-6.3c0.1-0.2,0.3-0.3,0.5-0.5
			c1.2-1.3,2.5-2.4,3.6-3.4c0.7-0.6,1.4-1.2,2.1-1.8c1.1-1.3,2-2.7,2.9-4.3c2.7-5.2,3.8-11.5,3.6-17.7C75.7,38.3,76.1,37,76.2,35.8z
			 M74.8,36c0-0.1,0-0.1,0-0.2c0-0.2,0.1-0.3,0.1-0.5C74.9,35.5,74.9,35.8,74.8,36z"/>
	</g>
	<g>
		<path class="st7" d="M53.8,46.3c-3,1.5-5.9,2.9-8.9,4.4c-1.4,0.7-2.8,1.4-4.2,2.1c-1,0.5-1.8,0.9-2.2,2c-0.2,0.5,0.6,0.7,0.7,0.2
			c0.5-1.3,2.5-1.8,3.6-2.4c1.3-0.6,2.5-1.2,3.8-1.9c2.5-1.2,5-2.5,7.6-3.7C54.6,46.7,54.2,46,53.8,46.3z"/>
	</g>
</g>
</svg>
