<?xml version="1.0" encoding="utf-8"?>
<!-- Generator: Adobe Illustrator 25.3.0, SVG Export Plug-In . SVG Version: 6.00 Build 0)  -->
<svg version="1.1" id="Layer_1" xmlns="http://www.w3.org/2000/svg" xmlns:xlink="http://www.w3.org/1999/xlink" x="0px" y="0px"
	 viewBox="0 0 169.1 195.6" style="enable-background:new 0 0 169.1 195.6;" xml:space="preserve">
<style type="text/css">
	.st0{fill:#F7B690;}
	.st1{fill:#856C58;}
	.st2{fill:#87ACBF;}
	.st3{fill:#FFE7E4;}
	.st4{fill:#E3E0D9;}
	.st5{fill:#F7A09B;}
	.st6{fill:#F6BE8F;}
	.st7{fill:#9E5D4E;}
	.st8{fill:#B47C6F;}
	.st9{fill:#41657B;}
	.st10{fill:#41657C;}
	.st11{fill:#E6D5CD;}
	.st12{fill:#9E5F4B;}
	.st13{fill:#AD6953;}
	.st14{fill:#7089A1;}
</style>
<g>
	<g>
		<g>
			<path class="st0" d="M149,136c1.5,11.8,5.5,40.6,5.3,44.4c0,0.6-0.1,1.1-0.3,1.6c-0.1,0.2-0.2,0.3-0.3,0.4c0,0-0.1,0.1-0.1,0.1
				c-0.3,0.3-1.2,0.6-1.5,0.9c-1.6,1.2-1.4,1.2-3.1,2.2c-1,0.5-2.1,1.4-1.8,2.4c0.3,1,1.7,1.1,2.8,1.1c3-0.3,4.8-0.5,7.8-0.8
				c0.5,0,0.9-0.1,1.3-0.4c0.4-0.3,0.5-0.7,0.6-1.2c0.4-1.4,0.5-2.8,0.6-4.3c0-0.5,0.1-1,0.2-1.5c0.1-0.5,0.1-0.9,0.2-1.4
				c0.4-2.5,0.4-4.7,0.6-7.2c0.6-10.5,0.6-15.6,0.3-19.8C155.5,125.2,152.4,135.6,149,136z"/>
			<path class="st1" d="M160.4,180c-0.1,3-0.3,4.1-0.6,5.5c-0.1,0.4-0.3,1.5-0.6,1.8c-0.4,0.3-0.8,0.6-1.3,0.7
				c-3.1,0.3-4.8,0.7-7.8,0.9c-1.1,0.1-2.5,0.1-2.8-1c-0.3-1,0.8-1.8,1.8-2.4c1.7-1,1.6-1,3.1-2.2c0.4-0.3,1.2-1.8,1.5-2.1
				c0,0,0.1,0.7,0.1-1.3H160.4z"/>
		</g>
		<g>
			<path class="st0" d="M120.9,136.5c-1.1,3.3,0.1,45.3,0,45.5c-0.1,0.2-0.2,0.3-0.3,0.4c0,0-0.1,0.1-0.1,0.1
				c-0.3,0.3-1.2,0.6-1.5,0.9c-1.6,1.2-1.4,1.2-3.1,2.2c-1,0.5-2.1,1.4-1.8,2.4c0.3,1,1.7,1.1,2.8,1.1c3-0.3,4.8-0.5,7.8-0.8
				c0.5,0,0.9-0.1,1.3-0.4c0.4-0.3,0.5-0.7,0.6-1.2c0.4-1.4,0.5-2.8,0.6-4.3c0-0.3,5.7-42.9,6.8-46
				C131.9,136.3,123.1,136.6,120.9,136.5z"/>
			<path class="st1" d="M127.3,182c-0.1,1-0.3,3.1-0.6,4.5c-0.1,0.4-0.3,1-0.6,1.3c-0.4,0.3-0.8,0.4-1.3,0.4
				c-3.1,0.3-4.8,0.5-7.8,0.8c-1.1,0.1-2.5,0-2.8-1c-0.3-1,0.8-1.9,1.8-2.4c1.7-1,1.5-1,3.1-2.2c0.4-0.3,1.2-0.8,1.5-1.1
				c0,0,0.1-0.3,0.1-0.3H127.3z"/>
		</g>
		<path class="st2" d="M117.2,103c1,18.8,2.1,37.6,3.1,56.4c11.5,1.9,23.2,2.1,34.7,0.6c1.3-0.2,5.7,0.6,6.9,0c3-1.5,1-5.9,1.8-9.1
			c3.8-15.7,5.4-32,4.6-48.1c0-0.7-0.2-1.6-0.9-1.8c-0.4-0.1-0.8,0.1-1.2,0.2c-15.4,6.7-33.2,1.6-50,2.4L117.2,103z"/>
		<path class="st3" d="M119.5,38.8c-7.8,8-10.6,19.3-12.1,30.2c-1.5,10.9-2.1,22.1-6.6,32.2c-0.9,1.9-1.9,3.8-2,5.9
			c-0.2,2.1,0.7,4.4,2.7,5.2c2.3,1,4.9-0.5,6.8-2.1c9-7.3,14.5-18,16.8-29.1c2.4-11.1,1.8-22.6,0.3-33.9c-0.6-4.1-2.5-9.2-6.7-9.1
			c-0.6,1.3-1.2,2.6-1.7,3.9L119.5,38.8z"/>
		<path class="st4" d="M138,27.6c5.1-2.1,7.4-6.8,7.4-11.7c-0.3-0.3-0.6-0.5-0.8-0.9c-1.1-1.7-0.4-4.1-1.1-6c-0.5-1.6-2-2.8-3.7-3.1
			c-1.7-0.3-3.5,0.4-4.6,1.7c-0.8-3.1-4-5.4-7.3-5.4c-5.6,0-8.5,4.5-9.9,9.1c-1.1,3.5-2.7,13.8,2.8,15.3l-0.8,0c0,0.1,0,0.1,0,0.2
			c4.2,0.1,8.3,0.5,12.4,1.1c1.4,0.2,2.9,0.5,4.3,0.7C137.1,28.2,137.5,27.8,138,27.6z"/>
		<path class="st5" d="M114.7,107.2c3.2-7.6-0.2-17.5-1.2-25.6c-1-8.2-2.6-16.3-1.8-24.5c0.8-8.2,4.5-16.6,11.7-20.8
			c3.5-2,7.5-3,11.5-3.4c5-0.5,10.2-0.2,14.8,1.8c6,2.6,10.4,8,13,13.9c2.6,5.9,3.6,12.3,4.3,18.6c1.1,10.1,1.5,20.2,1.3,30.3
			c0,1.6-0.1,3.3-0.8,4.8c-0.9,1.9-2.6,3.3-4.4,4.5c-7.4,4.7-16.7,6.1-25.5,5.4C128.7,111.4,123.1,109.8,114.7,107.2L114.7,107.2z"
			/>
		<path class="st6" d="M136.8,28.7c0.2-0.6,0.4-1.3,0.4-2c3.2,0.7,6.4-2.8,5.4-5.8c-2.1,0.1-4.2,0.2-6-0.8c-2.2-1.2-3.2-3.8-3.6-6.2
			c-3,3.2-8.5,3.8-12.2,1.5c-0.4,2-0.7,3.9-1.1,5.9c-1.1,6.3,1,14.5,9.3,13.8c3.4-0.3,6.4-2.7,7.7-5.7
			C136.7,29,136.7,28.8,136.8,28.7z"/>
		<path class="st3" d="M160.5,43.6c-1.4-2.3-3.7-4.6-6.3-4.9c-0.4,0.2-0.8,0.5-1.2,0.8c-4.2,12.9-5.8,26.5-4.8,40
			c-4.3,0.7-8.7,1.6-12,4.2c-3.3,2.7-5,7.8-2.4,11.1c1.6,2,4.4,2.9,7,2.9c2.6,0,5.2-0.9,7.6-1.7c4.4-1.5,9.2-3.1,12-6.8
			c2.3-2.9,2.9-6.7,3.5-10.4C165.7,66.9,166.9,54,160.5,43.6z"/>
		<path class="st0" d="M142.9,32.5c-2.5-2.7-6-5.4-5.6-8.2c-0.8,6-4,7.7-10.3,7.9c-0.5,0-1.1,0-1.5,0.3c-0.4,0.3-0.7,0.8-0.9,1.3
			c-0.8,1.7-1.5,3.4-2.3,5.1l0.6-0.8c0,0.2,0,0.5,0,0.7c0.2,1.1,0.9,2,1.6,2.8c2.6,2.7,6.5,4.3,10.4,4.1c3.8-0.2,7.5-2.3,9.5-5.6
			c0.6-1,1-2.1,0.9-3.2C145.2,35.3,144.2,33.9,142.9,32.5z"/>
		<g>
			<path class="st7" d="M131,189.2c-3.3-27.4-5.4-55.2-6.2-82.7c-0.1-1.7-0.1-4,1.1-6c1.5-2.5,4.7-3.7,7.6-2.9
				c2.8,0.8,4.9,3.5,4.8,6.4l-3.7-0.1c0-1.2-0.9-2.5-2.1-2.9c-1.2-0.3-2.7,0.2-3.4,1.3c-0.6,1-0.6,2.4-0.6,4.1
				c0.8,27.4,2.9,55.1,6.2,82.4L131,189.2z"/>
		</g>
		<path class="st0" d="M133.7,90.8c-1.6,0.1-3.3,0.5-4.7,1.3c-2.2,1.2-4.1,3.5-3.9,5.9c0.2,2.5,3.5,4.4,5.5,2.9
			c0.5-0.4,0.9-0.9,1.2-1.4c0.5-0.7,1.1-1.5,1.6-2.2c0.8-1.2,1.7-2.4,1.7-3.9s-1.5-2.9-2.9-2.3L133.7,90.8z"/>
		<path class="st0" d="M97.8,120.5c0.6-0.2,1.2-0.4,1.8-0.6c1.3-0.4,2.3-1.4,2.6-2.6c0.1-0.2,0.1-0.4,0.2-0.7c1-2.9,3.3-5.9,1.8-8.6
			c-0.6-1.1-2.2-1.7-3.1-0.9l0.4-1c-1.5,1.9-3.5,3.4-4.9,5.3c-1.5,1.9-2.4,4.5-1.5,6.7C95.5,119.3,96.6,120.1,97.8,120.5z"/>
		<path class="st4" d="M133.8,8.4c-0.3-2.9,1.7-5.8,4.6-6.8c2.8-1,6.2-0.3,8.4,1.7c2.2,2,3.2,5.1,2.9,8c-0.2,1.5-0.8,3-2.1,3.8
			c-0.7,0.4-1.6,0.6-2.5,0.7c-1.9,0.3-3.9,0.5-5.7-0.2c-3.6-1.4-4.5-6-4.9-9.8L133.8,8.4z"/>
		<g>
			<path class="st8" d="M123,28.1c-2.3,0-4.1-1.8-4.1-4s1.9-4,4.1-4c2.3,0,4.1,1.8,4.1,4S125.3,28.1,123,28.1z M123,21
				c-1.8,0-3.2,1.4-3.2,3.1s1.4,3.1,3.2,3.1c1.8,0,3.2-1.4,3.2-3.1S124.8,21,123,21z"/>
		</g>
		<g>
			<path class="st8" d="M131.7,29c-2.3,0-4.1-1.8-4.1-4c0-2.2,1.9-4,4.1-4c2.3,0,4.1,1.8,4.1,4C135.8,27.2,133.9,29,131.7,29z
				 M131.7,21.9c-1.8,0-3.2,1.4-3.2,3.1c0,1.7,1.4,3.1,3.2,3.1c1.8,0,3.2-1.4,3.2-3.1C134.9,23.3,133.4,21.9,131.7,21.9z"/>
		</g>
	</g>
	<g>
		<g>
			<g>
				<path class="st6" d="M67.8,193.1c-0.1,0.9-0.8,1.5-1.6,1.4c-0.1,0-0.1,0-0.2,0l-12.2-2.6c-1.3-0.3-2.4-1.5-2.5-2.9l-0.2-3.4
					l0-0.1l-0.5-7.6l7.9,1.1l0.4,6.5c0,0.1-0.1,0.3,0,0.4c0.1,0.3,0.1,0.6,0.3,0.9c0,0.1,0.1,0.1,0.1,0.2c0,0,0,0,0,0
					c0.2,0.3,0.5,0.5,0.8,0.7l6.5,3.5C67.4,191.4,67.8,192.3,67.8,193.1z"/>
			</g>
		</g>
		<g>
			<g>
				<path class="st9" d="M67.3,193.1c-0.1,0.9-0.8,1.5-1.6,1.4c-0.1,0-0.1,0-0.2,0l-12.2-2.6c-1.3-0.3-2.4-1.5-2.5-2.9l-0.2-3.4
					c1.3-0.3,2.8,0,4.3,0.3c1.3,0.3,2.6,0.8,3.9,1.1c0,0,0,0,0,0c0.2,0.3,0.5,0.5,0.8,0.7l6.5,3.5C66.9,191.4,67.3,192.3,67.3,193.1
					z"/>
			</g>
		</g>
		<path class="st10" d="M66.2,119c-0.1-4.7-0.5-9.8-3.9-13.2c-3.6-3.7-10.3-4.3-14.6-1.4c-1.1,0.7-2.1,1.9-1.9,3.1l-0.3-2.5
			c-0.4,23.4,0.4,46.9,2.2,70.3c0,0.4,0,0.7,0.1,1.1c0.1,1.2,0.2,2.4,0.3,3.6c0,0.6,0.1,1.1,0.5,1.6c0.2,0.2,0.5,0.4,0.8,0.5
			c0.4,0.2,0.8,0.3,1.3,0.3c2.1,0.4,4.3,0.6,6.5,0.8c0.8,0.1,1.7,0.1,2.3-0.4c0.6-0.5,0.6-1.4,0.5-2.1c0-0.3-0.1-0.6-0.1-0.9
			C60.9,179.9,66.6,137.3,66.2,119z"/>
		<g>
			<g>
				<path class="st6" d="M13.6,193.1c0.1,0.9,0.8,1.5,1.6,1.4c0.1,0,0.1,0,0.2,0l12.2-2.6c1.3-0.3,2.4-1.5,2.5-2.9l0.2-3.4l0-0.1
					l0.5-7.6l-7.9,1.1l-0.4,6.5c0,0.1,0.1,0.3,0,0.4c-0.1,0.3-0.1,0.6-0.3,0.9c0,0.1-0.1,0.1-0.1,0.2c0,0,0,0,0,0
					c-0.2,0.3-0.5,0.5-0.8,0.7l-6.5,3.5C14,191.4,13.5,192.3,13.6,193.1z"/>
			</g>
		</g>
		<g>
			<g>
				<path class="st9" d="M14.1,193.1c0.1,0.9,0.8,1.5,1.6,1.4c0.1,0,0.1,0,0.2,0l12.2-2.6c1.3-0.3,2.4-1.5,2.5-2.9l0.2-3.4
					c-1.3-0.3-2.8,0-4.3,0.3c-1.3,0.3-2.6,0.8-3.9,1.1c0,0,0,0,0,0c-0.2,0.3-0.5,0.5-0.8,0.7l-6.5,3.5
					C14.5,191.4,14,192.3,14.1,193.1z"/>
			</g>
		</g>
		<g>
			<g>
				<path class="st10" d="M35.8,105.1c0.4,25-0.5,50-2.5,75c0,0.6-0.1,1.1-0.5,1.6c-0.6,0.6-1.6,0.6-2.5,0.6c-2.4-0.1-7,0.6-8.9-0.8
					c-2.2-1.6-0.9-5.4-1.4-8c-3.5-18-5.3-36.2-4.9-54.5c0.1-4.7,0.5-9.8,3.9-13.2c3.6-3.7,10.3-4.3,14.6-1.4
					c1.1,0.7,2.1,1.9,1.9,3.1L35.8,105.1z"/>
			</g>
		</g>
		<g>
			<g>
				<g>
					<path class="st11" d="M56.8,37.6c0.6,9,5.5,17.5,3.9,26.3c-0.9,5-2.3,10-3,15.1c-0.9,6.5-0.6,13.1-0.3,19.6
						c0.1,3,0.3,6,0.4,8.9c0.2,4.7,0.5,9.5,0.7,14.2c0,0.2,0,0.3,0,0.5c0,0.7-0.1,1.4-0.6,1.9c-0.6,0.5-2,0.7-2.7,0.9
						c-8.6,2-14.2,2.7-27.2,2.2v-0.4c0-6.4,0.5-12.9,0.4-19.3c-0.2-11.3,0-22.6-0.1-33.9c-0.1-4.9-1.2-6.5-1.8-11.3
						c-0.8-7.1,3.3-19.4,3-26.4c-0.2-3.6-6.3-6.9-3.9-9.8c3.5-4.3,11.5-7.2,17.5-7.3c4.9-0.1,14,2.2,17.5,5.2
						C64,26.9,56.5,33.4,56.8,37.6z"/>
				</g>
			</g>
			<path class="st10" d="M58.5,122.3c0,0.7-0.1,1.4-0.6,1.9c-0.6,0.5-2,0.7-2.7,0.9c-8.6,2-14.2,2.7-27.2,2.2v-0.4
				c0-6.4,1.1-13.9,1.1-18.9h28.8c0.2,3,0.5,9.3,0.7,14C58.5,122.2,58.5,122.1,58.5,122.3z"/>
			<g>
				<g>
					<path class="st12" d="M31.1,127.3c0.2,0,0.3,0,0.5,0c0-0.1,0-0.3,0-0.4C31.4,127,31.3,127.1,31.1,127.3z"/>
				</g>
			</g>
			<g>
				<g>
					<path class="st12" d="M78.6,56.3c-0.2-5.2-0.5-10.5-2.4-15.4c-3.3-8.5-11-14.6-18.5-20.3c-8.4-6.5-15.6-7.2-25.4-2.3
						c-7.2,3.6-14.6,7.4-19.7,13.5c-6,7.2-2.1,17.4-2.4,25.7C9.6,72,8,86.7,8.5,101.1c0.2,5.8-0.3,11.5-0.9,17.1
						c-0.4,3.7-0.8,7.3-1,11c0,0,0,0,0,0c2.7,4.1,8.1,5.7,12.6,6.6c6.3,1.4,10.6,1.5,11.4-3.7c0.8-5.6,2.6-11.2,3-16.8
						c0.6-11.7-0.3-23.5-0.2-35.2c0-13.5,3.1-26.9-0.6-40.2c-0.9-3.1-5.5-10.9-3.7-13.9c2.6-4.3,8.4-7.2,12.8-7.3
						c3.4-0.1,8.8,1.3,11.2,3.7c3.5,3.5,1.4,7.1,0.3,11.5c-2.5,9.5-4.3,17.7-3.7,27.7c1.1,17.6,2.6,35.1,3.2,52.7
						c0.1,2.5,0.4,5,0.3,7.5c-0.2,4.1,0.6,7.6,1.2,11.6c0.2,1.5,1.6,2.5,3.1,2.2c7.1-1.4,13.9-4.1,19.8-8.2c0.9-12,1.9-24,2.8-36
						C80.7,79.8,78.6,68.1,78.6,56.3z"/>
				</g>
			</g>
			<g>
				<g>
					<path class="st12" d="M30.9,127.3l0.1,0.1l0.6,0.6c0-0.2,0-0.5,0-0.7c-0.2,0-0.3,0-0.5,0C31,127.3,31,127.3,30.9,127.3z"/>
				</g>
			</g>
		</g>
		<g>
			<g>
				<g>
					<path class="st13" d="M27.4,77.2c-0.6-0.3-1.3-0.7-1.9-1c-0.6-0.3-1.3-0.7-1.6-1.3c-1-2,0.7-6.6,0.9-8.7
						c0.4-4.3,0.8-8.7,1.2-13c0.3-3.2,0.6-6.3,0.4-9.5C26,38.3,24.6,33.1,23.1,28c-2-7-8.9,1.3-11.4,4.3C6.9,38,5.6,45.8,4.4,53.1
						C3.3,60.6,2.1,68,1,75.5c-0.2,1.3-0.4,2.7,0,4c0.4,1.3,1.4,2.4,2.4,3.4c10.6,10.5,26.1,15.8,40.9,14.1l4-7.7
						C41.9,85.5,33.9,80.7,27.4,77.2z"/>
				</g>
			</g>
			<g>
				<g>
					<path class="st0" d="M50.7,90.9c-1.1-0.4-2.1-0.7-3.2-1c-2.3,2.1-4,4.9-4.6,8c2.2-0.2,4.4,0.6,6,2c1.1,1,2.4,2.4,3.6,1.6
						c0.5-0.3,0.7-0.9,0.9-1.4C54.3,96.8,53.1,93.2,50.7,90.9z"/>
				</g>
			</g>
		</g>
		<g>
			<g>
				<path class="st14" d="M38.4,100.1l0.3-0.2c0.4-0.3,0.8-0.6,1.3-0.8c0.2-0.1,0.5-0.2,0.7-0.3c0.3-0.1,0.5-0.2,0.7-0.2
					c0.3,0,0.5-0.1,0.8-0.1c0.3,0,0.5,0,0.8,0l0.4,0l0.4,0.1c0.1,0,0.3,0,0.4,0.1l0.4,0.1c0.1,0,0.3,0.1,0.4,0.1
					c0.1,0,0.2,0.1,0.3,0.1c0.2,0.1,0.5,0.2,0.7,0.3l0.3,0.2l0.3,0.2c0.2,0.1,0.4,0.3,0.6,0.4c0.4,0.3,0.7,0.7,1,1.1
					c0.3,0.4,0.6,0.8,0.8,1.2c0.1,0.2,0.2,0.4,0.3,0.7l0.1,0.3l0.1,0.3c0.1,0.4,0.2,0.9,0.2,1.4c-0.3,3.9-0.5,7.8-0.8,11.6
					l-0.8,11.7L47.4,140l-0.4,5.8l-0.4,5.8c-0.1,1.9-0.3,3.9-0.4,5.8c-0.1,1.9-0.2,3.9-0.3,5.8c-0.1,1.9-0.1,3.9-0.2,5.8l-0.6,24.4
					h3.1l0.8-24.3c0.1-1.9,0.3-3.9,0.4-5.8c0.1-1.9,0.2-3.9,0.3-5.8c0.1-1.9,0.1-3.9,0.2-5.8l0.2-5.8l0.2-5.8l0.4-11.7l0.4-11.7
					c0.1-3.9,0.2-7.8,0.3-11.7l0,0l0,0c-0.1-0.6-0.1-1.1-0.3-1.6l-0.1-0.4l-0.2-0.4c-0.1-0.3-0.2-0.5-0.4-0.8c-0.3-0.5-0.6-1-1-1.4
					c-0.4-0.4-0.8-0.8-1.2-1.2c-0.5-0.3-1-0.7-1.5-0.9c-0.3-0.1-0.5-0.2-0.8-0.3c-0.1,0-0.3-0.1-0.4-0.1c-0.1,0-0.3-0.1-0.4-0.1
					l-0.4-0.1l-0.1,0l0,0l0,0l-0.1,0l-0.2,0l-0.4,0l-0.4,0c-0.3,0-0.6,0-0.9,0.1c-0.3,0-0.6,0.1-0.9,0.2c-0.3,0.1-0.6,0.2-0.8,0.3
					c-0.3,0.1-0.5,0.2-0.8,0.4c-0.5,0.3-1,0.6-1.4,0.9l-0.3,0.3c-0.1,0.1-0.2,0.2-0.3,0.3c-0.2,0.2-0.4,0.4-0.5,0.6
					c-0.3,0.4-0.6,0.9-0.9,1.4c-0.1,0.2-0.2,0.5-0.3,0.8c-0.1,0.3-0.1,0.5-0.2,0.8c0,0.3-0.1,0.5-0.1,0.8l-0.1,0.8l-0.3,3.1l0.3,0
					l0.5-3.1l0.1-0.8c0.1-0.3,0.1-0.5,0.2-0.8c0.1-0.2,0.1-0.5,0.2-0.7c0.1-0.2,0.2-0.5,0.3-0.7c0.2-0.4,0.5-0.9,0.8-1.2
					c0.2-0.2,0.3-0.4,0.5-0.6L38.4,100.1z"/>
			</g>
		</g>
		<g>
			<g>
				<g>
					<path class="st13" d="M57.2,77.2c0.6-0.3,1.3-0.7,1.9-1c0.6-0.3,1.3-0.7,1.6-1.3c0.2-0.5,0.2-1,0.2-1.5
						c-0.5-14.2-2.7-27.6-1.3-41.9c0.4-3.8,1-7.3,5-5.8c3,1.1,6.2,4.3,8.2,6.7c7.5,8.9,10.8,24.6,10.7,35.8
						c0,12.5-4.3,18.4-15.3,23.8c-3.3,1.6-25.6,9.7-28.1,5l-2.8-5.4c-0.9-1.7-0.2-3.7,1.4-4.6C44.8,83.6,51.7,80.2,57.2,77.2z"/>
				</g>
			</g>
			<g>
				<g>
					<path class="st0" d="M33.9,90.9c0.8-0.3,3.1-1.6,3.9-1.3c0.5,0.2,0.8,0.5,1.2,0.9c0.9,0.9,1.8,1.8,2.4,3c0.6,1,0.7,2.2,0.6,3.3
						c0,0.5-0.5,1-1,1c-1.4,0-3.7,1.9-4.2,2.9c-0.7,1.4-1.3,6.2-3.6,4.5C29.5,102.3,29.2,92.6,33.9,90.9z"/>
				</g>
			</g>
		</g>
		<g>
			<g>
				<g>
					<path class="st3" d="M51.2,18.8c3.2-1.4,1-4.8,2.6-2c0.6,1,1,2.1,1.8,2.9c3.4,3.5,4.2-2.9,3.5-5c-1.5-4.5-5.5-9.2-9.9-11
						c-1.1-0.5-2.4-0.8-3.6-0.7c-1,0.1-1.8,0.5-2.7,0.9c-4.2,2-8.7,4.3-10.4,8.5c-0.5,1.3-0.7,2.6-0.9,3.9c-0.1,0.9-0.2,1.9,0.4,2.7
						c2.1,3.2,3.8,0.7,4.3-1.7c0.3-1.3,0.9-2.4,1.5-3.6C39,11.5,48.9,19.8,51.2,18.8z"/>
				</g>
			</g>
			<g>
				<g>
					<path class="st0" d="M33.4,21.7c0-0.1,0.1-0.2,0.1-0.3c0.8-1.8,0.3-3.8,0.5-5.8c0.1-0.8,0.2-1.5,0.4-2.2
						c0.6-0.7,1.2-1.3,1.9-1.9c0.5,0.4,1.1,0.5,1.7,0c1.4-1,3.1-0.3,4.6,0.2c2,0.8,3.8,1.8,5.7,2.6c1.7,0.7,3.7,1.4,5.5,0.9
						c0.8-0.2,1.5-0.6,2.1-1.1c0.5,0.8,0.9,1.7,1.2,2.5c0.5,1.4,0.8,2.8,1,4.2c0.4,2.9,0.2,5.8-0.4,8.6c-0.2,1-0.5,2.1-1,3
						c-1.2,2.2-3.4,3.6-5.5,4.8c-1.2,0.7-2.4,1.3-3.8,1.5c-2,0.3-4-0.5-5.6-1.7c-4.4-3.1-6.6-8.3-8.5-13.3c-0.2-0.4-0.3-0.8-0.3-1.2
						C33.2,22.3,33.3,22,33.4,21.7z"/>
				</g>
			</g>
			<g>
				<g>
					<path class="st3" d="M33.5,21.6c0.9,0.2,3.6,1.4,4,0.2c0.2-0.6,0-4.3,0-4.9c0.1-2.8,0.6-5.3,3.3-6.7c0.6-0.3,1.3-0.7,1.2-1.3
						c-0.1-0.6-0.9-0.7-1.5-0.6C33.6,9.2,32.8,16.3,33.5,21.6C33.5,21.6,33.5,21.6,33.5,21.6z"/>
				</g>
			</g>
			<g>
				<g>
					<path class="st8" d="M50.5,22.6c0-2.4,2-4.3,4.4-4.3c2.4,0,4.4,1.9,4.4,4.3c0,2.4-2,4.3-4.4,4.3C52.4,26.9,50.5,25,50.5,22.6z
						 M51.4,22.6c0,1.8,1.5,3.3,3.4,3.3c1.9,0,3.4-1.5,3.4-3.3c0-1.8-1.5-3.3-3.4-3.3C53,19.3,51.4,20.8,51.4,22.6z"/>
				</g>
				<g>
					<path class="st8" d="M41.2,23.5c0-2.4,2-4.3,4.4-4.3s4.4,1.9,4.4,4.3c0,2.4-2,4.3-4.4,4.3S41.2,25.9,41.2,23.5z M42.2,23.5
						c0,1.8,1.5,3.3,3.4,3.3s3.4-1.5,3.4-3.3c0-1.8-1.5-3.3-3.4-3.3S42.2,21.7,42.2,23.5z"/>
				</g>
			</g>
		</g>
	</g>
</g>
</svg>
