<?xml version="1.0" encoding="utf-8"?>
<!-- Generator: Adobe Illustrator 25.3.0, SVG Export Plug-In . SVG Version: 6.00 Build 0)  -->
<svg version="1.1" id="Layer_1" xmlns="http://www.w3.org/2000/svg" xmlns:xlink="http://www.w3.org/1999/xlink" x="0px" y="0px"
	 viewBox="0 0 100 100" style="enable-background:new 0 0 100 100;" xml:space="preserve">
<style type="text/css">
	.st0{fill:none;}
	.st1{fill:#F37633;}
</style>
<g>
	<g>
		<path class="st0" d="M76.5,26.6c-1.4-1.4-3.7-1.4-5.1,0L42.3,55.8L28.8,41.3c-1.3-1.4-3.6-1.5-5.1-0.2L18.5,46
			c-1.4,1.3-1.5,3.6-0.2,5.1L39,73.3c1,1.1,2.7,1.4,4,0.8c0.8-0.1,1.5-0.4,2.1-1l36.5-36.5c1.4-1.4,1.4-3.7,0-5.1L76.5,26.6z"/>
		<path class="st1" d="M50,0C22.4,0,0,22.4,0,50c0,27.6,22.4,50,50,50s50-22.4,50-50C100,22.4,77.6,0,50,0z M81.6,36.7L45.1,73.2
			c-2.2,2.4-5,1.3-6.1,0.2L18.3,51.1c-1.3-1.4-1.3-3.7,0.2-5.1l5.2-4.9c1.4-1.3,3.7-1.3,5.1,0.2l13.5,14.5l29.2-29.2
			c1.4-1.4,3.7-1.4,5.1,0l5.1,5.1C83,33,83,35.3,81.6,36.7z"/>
	</g>
</g>
</svg>
