<?xml version="1.0" encoding="utf-8"?>
<!-- Generator: Adobe Illustrator 25.3.0, SVG Export Plug-In . SVG Version: 6.00 Build 0)  -->
<svg version="1.1" id="Layer_1" xmlns="http://www.w3.org/2000/svg" xmlns:xlink="http://www.w3.org/1999/xlink" x="0px" y="0px"
	 viewBox="0 0 289.5 36" style="enable-background:new 0 0 289.5 36;" xml:space="preserve">
<style type="text/css">
	.st0{fill:#FF782D;}
	.st1{fill:#27848D;}
</style>
<g>
	<g>
		<g>
			<path class="st0" d="M258.6,35.5c-1.1,0-2.1-0.4-2.9-1.2c-8.9-9-10.2-16.9-10.2-20.7c0-7.2,5.8-13.1,13-13.1c0,0,0,0,0.1,0
				c3.6,0,6.9,1.5,9.4,4.1c2.6,2.8,3.9,6.5,3.6,10.3l0,0c-0.6,8.5-6.6,15.8-10.1,19.4C260.7,35.1,259.7,35.5,258.6,35.5z M258.6,3.8
				C258.6,3.8,258.6,3.8,258.6,3.8c-5.4,0-9.7,4.4-9.7,9.7c0,8.1,6.5,15.6,9.2,18.4c0.2,0.2,0.4,0.2,0.5,0.2c0.1,0,0.3,0,0.5-0.2
				c2.6-2.6,8.7-9.6,9.2-17.3l0,0c0.2-2.9-0.8-5.7-2.7-7.8C263.7,4.9,261.3,3.8,258.6,3.8z"/>
		</g>
		<g>
			<path class="st0" d="M258.6,20.1c-3.6,0-6.6-2.9-6.6-6.6S255,7,258.6,7c3.6,0,6.6,2.9,6.6,6.6S262.2,20.1,258.6,20.1z
				 M258.6,10.3c-1.8,0-3.2,1.4-3.2,3.2s1.4,3.2,3.2,3.2s3.2-1.4,3.2-3.2S260.4,10.3,258.6,10.3z"/>
		</g>
	</g>
	<g>
		<path class="st1" d="M277,24.9c-0.4,0-0.9-0.2-1.2-0.5c-0.7-0.7-0.7-1.7,0-2.4c2-2,2-5.2,0-7.1c-0.7-0.7-0.7-1.7,0-2.4
			c0.7-0.7,1.7-0.7,2.4,0c3.3,3.3,3.3,8.6,0,11.9C277.9,24.7,277.5,24.9,277,24.9z"/>
	</g>
	<g>
		<path class="st1" d="M283,30.8c-0.4,0-0.9-0.2-1.2-0.5c-0.7-0.7-0.7-1.7,0-2.4c5.2-5.2,5.2-13.8,0-19c-0.7-0.7-0.7-1.7,0-2.4
			c0.7-0.7,1.7-0.7,2.4,0c6.5,6.5,6.5,17.2,0,23.7C283.8,30.6,283.4,30.8,283,30.8z"/>
	</g>
</g>
<g>
	<path class="st0" d="M9.9,13.1v11.1H7.6v-4.8H2.7v4.8H0.4V13.1h2.3v4.7h4.9v-4.7H9.9z"/>
	<path class="st0" d="M27.5,18.7c0,0.8-0.1,1.6-0.4,2.3c-0.3,0.7-0.7,1.3-1.2,1.8c-0.5,0.5-1.1,0.9-1.8,1.2
		c-0.7,0.3-1.5,0.4-2.3,0.4c-0.9,0-1.6-0.1-2.3-0.4c-0.7-0.3-1.3-0.7-1.8-1.2c-0.5-0.5-0.9-1.1-1.2-1.8c-0.3-0.7-0.4-1.4-0.4-2.3
		s0.1-1.6,0.4-2.3c0.3-0.7,0.7-1.3,1.2-1.8c0.5-0.5,1.1-0.9,1.8-1.2c0.7-0.3,1.5-0.4,2.3-0.4c0.9,0,1.6,0.1,2.3,0.4
		c0.7,0.3,1.3,0.7,1.8,1.2c0.5,0.5,0.9,1.1,1.2,1.8C27.4,17.1,27.5,17.9,27.5,18.7z M25.2,18.7c0-0.6-0.1-1.1-0.2-1.6
		s-0.4-0.9-0.7-1.2c-0.3-0.3-0.6-0.6-1-0.7c-0.4-0.2-0.9-0.3-1.4-0.3c-0.5,0-1,0.1-1.4,0.3c-0.4,0.2-0.8,0.4-1.1,0.7
		c-0.3,0.3-0.5,0.7-0.7,1.2c-0.2,0.5-0.2,1-0.2,1.6c0,0.6,0.1,1.1,0.2,1.6c0.2,0.5,0.4,0.9,0.7,1.2s0.6,0.6,1.1,0.7
		c0.4,0.2,0.9,0.3,1.4,0.3c0.5,0,1-0.1,1.4-0.3c0.4-0.2,0.8-0.4,1-0.7c0.3-0.3,0.5-0.7,0.7-1.2C25.1,19.8,25.2,19.3,25.2,18.7z
		 M21.3,11.5c0,0.1,0,0.3-0.1,0.4c-0.1,0.1-0.1,0.2-0.2,0.3c-0.1,0.1-0.2,0.2-0.4,0.2c-0.1,0.1-0.3,0.1-0.4,0.1
		c-0.1,0-0.3,0-0.4-0.1c-0.1-0.1-0.2-0.1-0.3-0.2c-0.1-0.1-0.2-0.2-0.2-0.3c-0.1-0.1-0.1-0.3-0.1-0.4c0-0.1,0-0.3,0.1-0.4
		c0.1-0.1,0.1-0.3,0.2-0.4c0.1-0.1,0.2-0.2,0.3-0.2c0.1-0.1,0.3-0.1,0.4-0.1c0.2,0,0.3,0,0.4,0.1c0.1,0.1,0.3,0.1,0.4,0.2
		c0.1,0.1,0.2,0.2,0.2,0.4C21.2,11.2,21.3,11.3,21.3,11.5z M24.7,11.5c0,0.1,0,0.3-0.1,0.4s-0.1,0.2-0.2,0.3
		c-0.1,0.1-0.2,0.2-0.3,0.2c-0.1,0.1-0.3,0.1-0.4,0.1c-0.2,0-0.3,0-0.4-0.1c-0.1-0.1-0.2-0.1-0.3-0.2c-0.1-0.1-0.2-0.2-0.2-0.3
		s-0.1-0.3-0.1-0.4c0-0.1,0-0.3,0.1-0.4c0.1-0.1,0.1-0.3,0.2-0.4c0.1-0.1,0.2-0.2,0.3-0.2c0.1-0.1,0.3-0.1,0.4-0.1
		c0.2,0,0.3,0,0.4,0.1c0.1,0.1,0.2,0.1,0.3,0.2c0.1,0.1,0.2,0.2,0.2,0.4C24.7,11.2,24.7,11.3,24.7,11.5z"/>
	<path class="st0" d="M42.6,24.2h-2.1c-0.4,0-0.7-0.1-0.8-0.4l-2.1-3.4c-0.1-0.1-0.2-0.2-0.3-0.3C37.2,20,37.1,20,36.9,20h-0.8v4.2
		h-2.3V13.1h3.5c0.8,0,1.4,0.1,2,0.2c0.6,0.2,1,0.4,1.4,0.7c0.4,0.3,0.6,0.6,0.8,1c0.2,0.4,0.2,0.8,0.2,1.3c0,0.4-0.1,0.7-0.2,1
		c-0.1,0.3-0.3,0.6-0.5,0.9c-0.2,0.3-0.4,0.5-0.7,0.7c-0.3,0.2-0.6,0.4-1,0.5c0.1,0.1,0.3,0.2,0.4,0.3c0.1,0.1,0.2,0.3,0.3,0.4
		L42.6,24.2z M37.3,18.4c0.4,0,0.7,0,1-0.1c0.3-0.1,0.5-0.2,0.7-0.4c0.2-0.2,0.3-0.4,0.4-0.6s0.1-0.5,0.1-0.7c0-0.5-0.2-0.9-0.5-1.2
		c-0.3-0.3-0.9-0.4-1.6-0.4h-1.2v3.5H37.3z"/>
	<path class="st0" d="M53.5,18.6h3.8v4.6c-0.6,0.4-1.2,0.7-1.8,0.9c-0.6,0.2-1.3,0.3-2,0.3c-0.9,0-1.7-0.1-2.5-0.4
		c-0.7-0.3-1.4-0.7-1.9-1.2c-0.5-0.5-0.9-1.1-1.2-1.8c-0.3-0.7-0.4-1.4-0.4-2.3c0-0.8,0.1-1.6,0.4-2.3c0.3-0.7,0.7-1.3,1.2-1.8
		c0.5-0.5,1.1-0.9,1.8-1.2c0.7-0.3,1.5-0.4,2.4-0.4c0.5,0,0.9,0,1.3,0.1c0.4,0.1,0.8,0.2,1.1,0.3c0.3,0.1,0.6,0.3,0.9,0.5
		c0.3,0.2,0.5,0.4,0.8,0.6l-0.7,1c-0.1,0.2-0.2,0.3-0.4,0.3c-0.2,0-0.3,0-0.5-0.1c-0.2-0.1-0.4-0.2-0.5-0.3
		c-0.2-0.1-0.4-0.2-0.6-0.2C54.5,15.1,54.3,15,54,15c-0.2,0-0.5-0.1-0.8-0.1c-0.5,0-1,0.1-1.4,0.3c-0.4,0.2-0.8,0.4-1.1,0.8
		c-0.3,0.3-0.5,0.7-0.7,1.2c-0.2,0.5-0.2,1-0.2,1.5c0,0.6,0.1,1.2,0.3,1.6c0.2,0.5,0.4,0.9,0.7,1.2c0.3,0.3,0.7,0.6,1.1,0.8
		c0.4,0.2,0.9,0.3,1.5,0.3c0.4,0,0.7,0,1-0.1c0.3-0.1,0.6-0.2,0.8-0.3v-1.9H54c-0.1,0-0.3,0-0.3-0.1c-0.1-0.1-0.1-0.2-0.1-0.3V18.6z
		"/>
	<path class="st0" d="M66.1,14.9v2.9h3.7v1.7h-3.7v2.9h4.8v1.8h-7.1V13.1h7.1v1.8H66.1z"/>
	<path class="st0" d="M86,24.2h-2.1c-0.4,0-0.7-0.1-0.8-0.4L81,20.4c-0.1-0.1-0.2-0.2-0.3-0.3C80.6,20,80.4,20,80.2,20h-0.8v4.2
		h-2.3V13.1h3.5c0.8,0,1.4,0.1,2,0.2c0.6,0.2,1,0.4,1.4,0.7c0.4,0.3,0.6,0.6,0.8,1c0.2,0.4,0.2,0.8,0.2,1.3c0,0.4-0.1,0.7-0.2,1
		c-0.1,0.3-0.3,0.6-0.5,0.9c-0.2,0.3-0.4,0.5-0.7,0.7c-0.3,0.2-0.6,0.4-1,0.5c0.1,0.1,0.3,0.2,0.4,0.3c0.1,0.1,0.2,0.3,0.3,0.4
		L86,24.2z M80.6,18.4c0.4,0,0.7,0,1-0.1c0.3-0.1,0.5-0.2,0.7-0.4c0.2-0.2,0.3-0.4,0.4-0.6s0.1-0.5,0.1-0.7c0-0.5-0.2-0.9-0.5-1.2
		c-0.3-0.3-0.9-0.4-1.6-0.4h-1.2v3.5H80.6z"/>
	<path class="st0" d="M101.4,24.2h-1.8c-0.2,0-0.4,0-0.5-0.1c-0.1-0.1-0.2-0.2-0.3-0.4l-0.7-2.1h-4.4l-0.7,2.1
		c-0.1,0.1-0.1,0.2-0.3,0.3c-0.1,0.1-0.3,0.2-0.5,0.2h-1.8l4.3-11.1h2.3L101.4,24.2z M95.3,11.5c0,0.1,0,0.3-0.1,0.4
		c-0.1,0.1-0.1,0.2-0.2,0.3c-0.1,0.1-0.2,0.2-0.4,0.2c-0.1,0.1-0.3,0.1-0.4,0.1c-0.1,0-0.3,0-0.4-0.1c-0.1-0.1-0.2-0.1-0.3-0.2
		c-0.1-0.1-0.2-0.2-0.2-0.3c-0.1-0.1-0.1-0.3-0.1-0.4c0-0.1,0-0.3,0.1-0.4c0.1-0.1,0.1-0.3,0.2-0.4c0.1-0.1,0.2-0.2,0.3-0.2
		c0.1-0.1,0.3-0.1,0.4-0.1c0.2,0,0.3,0,0.4,0.1c0.1,0.1,0.3,0.1,0.4,0.2c0.1,0.1,0.2,0.2,0.2,0.4C95.2,11.2,95.3,11.3,95.3,11.5z
		 M97.5,20l-1.2-3.4c-0.1-0.2-0.1-0.4-0.2-0.6c-0.1-0.2-0.2-0.5-0.2-0.8c-0.1,0.3-0.1,0.5-0.2,0.8c-0.1,0.2-0.2,0.5-0.2,0.6L94.2,20
		H97.5z M98.7,11.5c0,0.1,0,0.3-0.1,0.4c-0.1,0.1-0.1,0.2-0.2,0.3c-0.1,0.1-0.2,0.2-0.3,0.2c-0.1,0.1-0.3,0.1-0.4,0.1
		c-0.2,0-0.3,0-0.4-0.1c-0.1-0.1-0.2-0.1-0.3-0.2c-0.1-0.1-0.2-0.2-0.2-0.3c-0.1-0.1-0.1-0.3-0.1-0.4c0-0.1,0-0.3,0.1-0.4
		c0.1-0.1,0.1-0.3,0.2-0.4c0.1-0.1,0.2-0.2,0.3-0.2c0.1-0.1,0.3-0.1,0.4-0.1c0.2,0,0.3,0,0.4,0.1c0.1,0.1,0.2,0.1,0.3,0.2
		c0.1,0.1,0.2,0.2,0.2,0.4C98.7,11.2,98.7,11.3,98.7,11.5z"/>
	<path class="st0" d="M113.8,15h-3.2v9.2h-2.3V15H105v-1.8h8.8V15z"/>
	<path class="st0" d="M122,14.9v2.9h3.7v1.7H122v2.9h4.8v1.8h-7.1V13.1h7.1v1.8H122z"/>
	<path class="st1" d="M148.8,13.8c0,0.2-0.1,0.3-0.2,0.5l-6.2,8.7h6.3v1.2h-8.2v-0.6c0-0.1,0-0.2,0-0.2c0-0.1,0.1-0.1,0.1-0.2
		l6.2-8.7h-6.1v-1.2h8V13.8z"/>
	<path class="st1" d="M162.1,23l0,1.2h-6.7v-11h6.7v1.2h-5.3v3.6h4.3v1.2h-4.3V23H162.1z"/>
	<path class="st1" d="M177.6,13.3v11h-0.7c-0.1,0-0.2,0-0.3-0.1c-0.1,0-0.2-0.1-0.2-0.2l-6.3-8.3c0,0.1,0,0.3,0,0.4
		c0,0.1,0,0.2,0,0.3v7.8h-1.3v-11h0.8c0.1,0,0.1,0,0.2,0c0,0,0.1,0,0.1,0c0,0,0.1,0,0.1,0.1c0,0,0.1,0.1,0.1,0.1l6.3,8.2
		c0-0.1,0-0.3,0-0.4c0-0.1,0-0.2,0-0.4v-7.8H177.6z"/>
	<path class="st1" d="M192.4,14.5h-3.5v9.7h-1.5v-9.7h-3.6v-1.2h8.6V14.5z"/>
	<path class="st1" d="M206.7,24.2h-1.3c-0.3,0-0.5-0.1-0.6-0.3l-2.8-3.9c-0.1-0.1-0.2-0.2-0.3-0.3c-0.1-0.1-0.3-0.1-0.5-0.1h-1.1
		v4.6h-1.5v-11h3.1c0.7,0,1.3,0.1,1.8,0.2c0.5,0.1,0.9,0.3,1.2,0.6c0.3,0.3,0.6,0.6,0.7,1c0.2,0.4,0.2,0.8,0.2,1.3
		c0,0.4-0.1,0.7-0.2,1.1c-0.1,0.3-0.3,0.6-0.5,0.9c-0.2,0.3-0.5,0.5-0.8,0.7c-0.3,0.2-0.7,0.3-1.1,0.4c0.2,0.1,0.4,0.3,0.5,0.5
		L206.7,24.2z M201.6,18.6c0.4,0,0.8-0.1,1.1-0.2c0.3-0.1,0.6-0.3,0.8-0.4c0.2-0.2,0.4-0.4,0.5-0.7c0.1-0.3,0.2-0.6,0.2-0.9
		c0-0.7-0.2-1.1-0.6-1.5c-0.4-0.3-1.1-0.5-1.9-0.5h-1.6v4.1H201.6z"/>
	<path class="st1" d="M219.5,23l0,1.2h-6.7v-11h6.7v1.2h-5.3v3.6h4.3v1.2h-4.3V23H219.5z"/>
	<path class="st1" d="M235.1,13.3v11h-0.7c-0.1,0-0.2,0-0.3-0.1c-0.1,0-0.2-0.1-0.2-0.2l-6.3-8.3c0,0.1,0,0.3,0,0.4
		c0,0.1,0,0.2,0,0.3v7.8h-1.3v-11h0.8c0.1,0,0.1,0,0.2,0c0,0,0.1,0,0.1,0c0,0,0.1,0,0.1,0.1c0,0,0.1,0.1,0.1,0.1l6.3,8.2
		c0-0.1,0-0.3,0-0.4c0-0.1,0-0.2,0-0.4v-7.8H235.1z"/>
</g>
</svg>
